<?xml version="1.0" encoding="utf-8"?>
<!-- Generator: Adobe Illustrator 15.0.0, SVG Export Plug-In . SVG Version: 6.00 Build 0)  -->
<!DOCTYPE svg PUBLIC "-//W3C//DTD SVG 1.1//EN" "http://www.w3.org/Graphics/SVG/1.1/DTD/svg11.dtd">
<svg version="1.1" id="Layer_1" xmlns="http://www.w3.org/2000/svg" xmlns:xlink="http://www.w3.org/1999/xlink" x="0px" y="0px"
	 width="1088.5px" height="1088.5px" viewBox="0 0 1088.5 1088.5" enable-background="new 0 0 1088.5 1088.5" xml:space="preserve">
<path fill="#FFFFFF" stroke="#0000FF" stroke-width="0.0283" stroke-miterlimit="10" d="M708.664,219.257
	c0,4.15-4.184,7.516-9.34,7.516H9.339c-5.157,0-9.338-3.365-9.338-7.516V7.516c0-4.151,4.181-7.515,9.338-7.515h689.985
	c5.156,0,9.34,3.364,9.34,7.515V219.257z"/>
<circle fill="#FFFFFF" stroke="#0000FF" stroke-width="0.0283" stroke-miterlimit="10" cx="19.844" cy="19.843" r="4.5"/>
<circle fill="#FFFFFF" stroke="#0000FF" stroke-width="0.0283" stroke-miterlimit="10" cx="688.82" cy="19.843" r="4.5"/>
<circle fill="#FFFFFF" stroke="#0000FF" stroke-width="0.0283" stroke-miterlimit="10" cx="19.844" cy="206.931" r="4.5"/>
<circle fill="#FFFFFF" stroke="#0000FF" stroke-width="0.0283" stroke-miterlimit="10" cx="688.82" cy="206.931" r="4.5"/>
<circle fill="#FFFFFF" stroke="#0000FF" stroke-width="0.0283" stroke-miterlimit="10" cx="457.796" cy="164.411" r="9.071"/>
<circle fill="#FFFFFF" stroke="#0000FF" stroke-width="0.0283" stroke-miterlimit="10" cx="250.867" cy="164.411" r="9.071"/>
<path fill="#FFFFFF" stroke="#0000FF" stroke-width="0.0283" stroke-miterlimit="10" d="M708.664,446.028
	c0,4.146-4.184,7.516-9.34,7.516H9.338c-5.157,0-9.338-3.365-9.338-7.516v-211.74c0-4.151,4.181-7.516,9.338-7.516h689.986
	c5.156,0,9.34,3.364,9.34,7.516V446.028L708.664,446.028z"/>
<circle fill="#FFFFFF" stroke="#0000FF" stroke-width="0.0283" stroke-miterlimit="10" cx="19.844" cy="246.614" r="4.5"/>
<circle fill="#FFFFFF" stroke="#0000FF" stroke-width="0.0283" stroke-miterlimit="10" cx="688.82" cy="246.614" r="4.5"/>
<circle fill="#FFFFFF" stroke="#0000FF" stroke-width="0.0283" stroke-miterlimit="10" cx="19.844" cy="433.702" r="4.5"/>
<circle fill="#FFFFFF" stroke="#0000FF" stroke-width="0.0283" stroke-miterlimit="10" cx="688.82" cy="433.702" r="4.5"/>
<g>
	<g>
		<path fill="#FFFFFF" d="M313.639,166.671c1.652,12.845,9.115,19.881,18.305,25.191c1.358-1.294,2.422-2.889,3.656-4.307
			c-4.13-2.234-7.721-5.002-10.55-8.684c-2.758-3.59-4.908-8.212-5.021-14.21c-0.115-5.944,2.243-10.79,4.88-14.354
			c2.77-3.746,6.438-6.402,10.403-8.756c-1.135-1.45-2.241-2.923-3.518-4.234c-9.218,5.183-16.491,12.312-18.157,25.047
			c0-8.684,0-17.368,0-26.052c27.153,0,54.308,0,81.457,0c0,18.731,0,37.463,0,56.194c-27.149,0-54.304,0-81.457,0
			C313.639,183.896,313.639,175.283,313.639,166.671z M373.35,141.624c4.08,2.248,7.646,4.993,10.406,8.756
			c2.623,3.571,4.996,8.321,4.88,14.282c-0.116,5.994-2.246,10.552-5.021,14.138c-2.824,3.646-6.28,6.534-10.479,8.685
			c0.482,0.811,1.143,1.503,1.727,2.225c0.583,0.721,1.129,1.512,1.862,2.081c4.768-2.469,8.723-5.733,11.985-9.832
			c3.209-4.027,5.829-9.031,6.315-15.574c0.096-1.285,0.094-2.629,0-3.803c-0.515-6.411-3.05-11.362-6.176-15.431
			c-3.177-4.135-7.394-7.282-11.842-9.832c-0.048,0-0.096,0-0.144,0C375.635,138.694,374.447,140.113,373.35,141.624z
			 M338.973,146.002c-4.164,2.277-7.628,5.324-9.976,9.474c-1.134,2.004-2.088,4.647-2.296,7.248
			c-0.551,6.872,2.437,11.933,5.741,15.358c1.93,2.001,4.099,3.638,6.674,5.024c0.938-0.854,1.729-1.857,2.438-2.942
			c-5.376-3.003-10.521-7.636-10.55-15.574c-0.03-8.118,5.093-12.41,10.335-15.789C340.526,147.895,339.816,146.882,338.973,146.002
			z M367.395,148.944c2.562,1.443,4.875,3.2,6.677,5.526c1.756,2.271,3.348,5.092,3.588,8.684
			c0.583,8.689-4.768,13.729-10.479,17.01c0.663,1.107,1.503,2.036,2.368,2.942c4.179-2.216,7.535-5.275,9.979-9.402
			c2.416-4.084,3.379-10.213,1.36-15.717c-2.003-5.47-6.371-9.22-11.124-11.913C368.976,146.747,368.07,147.923,367.395,148.944z
			 M344.787,153.107c-4.05,2.415-8.107,6.261-7.536,12.56c0.473,5.216,4.143,8.152,7.679,10.334
			c0.646-0.455,1.117-1.084,1.507-1.794c-3.137-1.786-6.18-4.495-6.527-8.899c-0.446-5.587,3.095-8.281,6.312-10.406
			C345.851,154.195,345.314,153.656,344.787,153.107z M371.413,165.595c0.521-6.531-3.483-9.874-7.392-12.416
			c-0.052,0-0.1,0-0.146,0c-0.521,0.528-0.979,1.125-1.436,1.723c3.325,2.111,6.773,5.018,6.312,10.479
			c-0.375,4.447-3.31,6.965-6.531,8.755c0.37,0.755,0.944,1.306,1.509,1.866C367.3,173.812,370.999,170.778,371.413,165.595z
			 M347.298,155.69c-0.125,2.099,0.886,3.636,2.229,4.665c-0.885,0.626-1.494,1.521-1.511,3.015c-0.938,0.758-1.63,1.819-1.36,3.444
			c0.086,0.525,0.504,0.885,0.718,1.364c0.495,1.11,0.513,2.503,1.436,3.373c0.836,0.788,2.066,1.254,3.086,1.723
			c0.9,1.608,4.279,1.371,5.168-0.072c1.131-0.779,2.271-0.93,3.088-1.794c0.896-0.95,0.632-2.188,1.146-3.373
			c0.361-0.828,0.943-1.352,0.718-2.728c-0.181-1.104-1.134-1.374-1.436-2.153c-0.104-0.269-0.011-0.61-0.071-0.86
			c-0.209-0.857-0.832-1.445-1.364-1.938c1.566-0.788,2.61-2.667,2.368-4.809c-2.192-1.368-6.062-1.455-7.104,1.005
			C353.47,153.98,349.093,154.189,347.298,155.69z"/>
		<path d="M313.639,166.671c0-1.435,0-2.87,0-4.306c1.666-12.735,8.939-19.864,18.157-25.047c1.272,1.312,2.383,2.784,3.517,4.234
			c-3.966,2.354-7.636,5.01-10.402,8.756c-2.636,3.563-4.995,8.409-4.88,14.354c0.112,5.998,2.266,10.62,5.021,14.21
			c2.829,3.682,6.42,6.449,10.55,8.684c-1.234,1.418-2.298,3.013-3.656,4.307C322.754,186.552,315.292,179.516,313.639,166.671z"/>
		<path d="M376.867,137.318c0.048,0,0.096,0,0.144,0c4.448,2.55,8.665,5.697,11.843,9.832c3.125,4.068,5.66,9.02,6.175,15.431
			c0.094,1.174,0.096,2.518,0,3.803c-0.486,6.543-3.106,11.547-6.315,15.574c-3.267,4.099-7.222,7.363-11.984,9.832
			c-0.734-0.569-1.28-1.36-1.863-2.081c-0.584-0.722-1.241-1.414-1.727-2.225c4.198-2.15,7.654-5.039,10.479-8.685
			c2.776-3.586,4.908-8.144,5.021-14.138c0.115-5.961-2.257-10.711-4.88-14.282c-2.764-3.763-6.326-6.508-10.405-8.756
			C374.447,140.113,375.635,138.694,376.867,137.318z"/>
		<path d="M341.342,148.801c-5.242,3.379-10.365,7.671-10.335,15.789c0.029,7.938,5.174,12.571,10.55,15.574
			c-0.709,1.085-1.5,2.089-2.438,2.942c-2.576-1.387-4.745-3.023-6.674-5.024c-3.309-3.426-6.292-8.486-5.741-15.358
			c0.208-2.601,1.163-5.244,2.296-7.248c2.347-4.149,5.812-7.196,9.976-9.474C339.816,146.882,340.526,147.895,341.342,148.801z"/>
		<path d="M369.762,146.074c4.753,2.693,9.121,6.443,11.124,11.913c2.02,5.504,1.052,11.633-1.364,15.717
			c-2.438,4.127-5.797,7.187-9.976,9.402c-0.865-0.906-1.706-1.835-2.368-2.942c5.714-3.28,11.062-8.32,10.479-17.01
			c-0.241-3.592-1.833-6.414-3.588-8.684c-1.803-2.326-4.113-4.083-6.678-5.526C368.07,147.923,368.976,146.747,369.762,146.074z"/>
		<path d="M346.222,154.901c-3.22,2.125-6.761,4.819-6.312,10.406c0.351,4.404,3.394,7.113,6.527,8.899
			c-0.39,0.71-0.858,1.339-1.507,1.794c-3.536-2.182-7.206-5.118-7.679-10.334c-0.572-6.299,3.485-10.145,7.536-12.56
			C345.314,153.656,345.851,154.195,346.222,154.901z"/>
		<path d="M363.733,176.001c-0.563-0.561-1.142-1.111-1.511-1.866c3.225-1.79,6.155-4.308,6.531-8.755
			c0.461-5.461-2.982-8.367-6.312-10.479c0.454-0.598,0.911-1.194,1.436-1.723c0.048,0,0.096,0,0.146,0
			c3.905,2.542,7.91,5.885,7.392,12.416C370.999,170.778,367.3,173.812,363.733,176.001z"/>
		<path d="M354.403,156.552c1.043-2.46,4.909-2.373,7.104-1.005c0.242,2.142-0.802,4.021-2.368,4.809
			c0.532,0.493,1.155,1.081,1.364,1.938c0.062,0.25-0.032,0.592,0.071,0.86c0.301,0.779,1.255,1.05,1.436,2.153
			c0.229,1.376-0.354,1.899-0.718,2.728c-0.517,1.185-0.252,2.423-1.147,3.373c-0.812,0.864-1.955,1.015-3.087,1.794
			c-0.888,1.443-4.267,1.681-5.165,0.072c-1.021-0.469-2.25-0.935-3.088-1.723c-0.922-0.87-0.938-2.263-1.436-3.373
			c-0.213-0.479-0.632-0.839-0.718-1.364c-0.27-1.625,0.421-2.687,1.36-3.444c0.017-1.494,0.625-2.389,1.511-3.015
			c-1.341-1.029-2.354-2.566-2.229-4.665C349.093,154.189,353.47,153.98,354.403,156.552z M350.958,155.547
			c-0.185-0.104-0.582-0.371-0.79-0.215c0.125,0.064,0.276,0.16,0.145,0.287c-0.188-0.077-0.586-0.32-0.791-0.144
			c0.091-0.022,0.248,0.207,0.072,0.215c-0.317-0.045-0.724-0.236-0.933,0c0.09,0.03,0.146,0.093,0.144,0.216
			c-0.242,0.045-0.667-0.093-0.79,0.071c0.139,0.176,0.271,0.352,0.287,0.646c-0.203,0.059-0.186-0.102-0.355-0.072
			c0.046,0.361,0.454,0.357,0.502,0.718c-0.167,0.023-0.276-0.012-0.359-0.071c0.079,0.351,0.438,0.425,0.574,0.718
			c-0.104,0.039-0.371-0.084-0.359,0.071c0.21,0.196,0.558,0.259,0.646,0.574c-0.107,0.013-0.269-0.025-0.287,0.072
			c0.249,0.182,0.597,0.264,0.789,0.502c-0.084,0.035-0.163,0.076-0.215,0.144c0.241,0.114,0.583,0.134,0.789,0.287
			c-0.012,0.136-0.237,0.05-0.219,0.215c0.282,0.077,0.702,0.016,0.937,0.144c0.021,0.142-0.1,0.143-0.146,0.216
			c1.19,0.018,2.144-0.205,2.368-1.148c-0.817-0.976-1.97-1.618-3.086-2.297c1.409,0.386,2.433,1.157,3.519,1.866
			c1.133-0.526,0.461-2.16-0.285-2.728c0.004,0.124-0.059,0.185-0.146,0.216c-0.161-0.222-0.353-0.413-0.574-0.574
			c0.021,0.188-0.022,0.309-0.215,0.287c-0.016-0.228-0.375-0.482-0.502-0.359c0.094,0.002,0.091,0.199,0,0.216
			c-0.229-0.151-0.447-0.318-0.718-0.431C350.939,155.399,351.246,155.455,350.958,155.547z M357.13,155.619
			c-0.012-0.107,0.026-0.265-0.072-0.287c-0.166,0.146-0.295,0.327-0.502,0.431c-0.191,0.051,0.055-0.339-0.144-0.287
			c-0.195,0.212-0.332,0.481-0.646,0.574c-0.011-0.085,0.016-0.204-0.068-0.216c-0.617,0.545-1.412,2.331-0.146,2.728
			c0.956-0.791,2.283-1.592,3.521-1.866c-0.479,0.273-1.48,0.774-2.153,1.292c-0.25,0.192-0.992,0.793-1.004,1.076
			c-0.033,0.709,1.322,1.228,2.368,1.005c-0.124,0.004-0.188-0.055-0.218-0.144c0.236-0.146,0.758-0.01,0.936-0.215
			c-0.067-0.077-0.268-0.022-0.215-0.216c0.356-0.022,0.646-0.116,0.857-0.287c-0.134-0.01-0.236-0.047-0.285-0.144
			c0.26-0.172,0.645-0.218,0.789-0.502c-0.104-0.012-0.266,0.025-0.284-0.071c0.202-0.203,0.513-0.301,0.646-0.574
			c-0.104-0.013-0.265,0.025-0.287-0.072c0.147-0.188,0.646-0.404,0.502-0.646c0.033,0.117-0.391,0.117-0.354,0
			c0.18-0.227,0.483-0.326,0.574-0.646c-0.13-0.043-0.302,0.211-0.359,0c-0.003-0.312,0.179-0.442,0.287-0.646
			c-0.269-0.046-0.715,0.093-0.861-0.072c0.02-0.103,0.118-0.121,0.146-0.215c-0.396-0.037-0.68,0.041-1.007,0.071
			c0.036-0.105,0.105-0.181,0.146-0.287c-0.29-0.023-0.658,0.247-0.79,0.144c-0.052-0.195,0.143-0.144,0.145-0.286
			c-0.348,0.035-0.521,0.244-0.858,0.286c-0.033-0.137,0.221-0.309-0.072-0.286C357.521,155.388,357.414,155.592,357.13,155.619z
			 M352.322,161.504c0.083,1.308,3.916,1.444,4.019,0.072c0.081-1.087-1.612-1.464-2.512-1.292
			C352.96,160.449,352.283,160.884,352.322,161.504z M348.877,163.37c1.319-0.549,2.594-1.519,3.086-2.655
			C350.014,160.351,348.711,161.62,348.877,163.37z M356.628,160.715c0.671,1.267,1.729,2.146,3.158,2.655
			C359.786,161.474,358.585,160.418,356.628,160.715z M356.557,167.03c3.581,1.092,3.038-5.164-0.431-4.307
			C354.012,163.247,354.956,166.542,356.557,167.03z M349.882,166.241c1.117,2.167,4.383,0.406,4.091-1.938
			c-0.129-1.039-1.018-1.812-2.367-1.507C350.366,163.075,349.127,164.775,349.882,166.241z M359.786,163.872
			c-0.406,1.221-0.174,3.278,0.718,3.876C361.758,166.854,361.373,164.105,359.786,163.872z M348.23,167.819
			c0.437-0.281,0.709-1.103,0.791-1.865c0.066-0.652,0.171-1.629-0.359-1.938C347.258,164.34,346.895,167.13,348.23,167.819z
			 M352.538,170.188c0.903,1.149,2.915,0.936,3.66,0c1.262-1.586-0.335-3.498-2.153-3.23
			C352.334,167.21,351.554,168.936,352.538,170.188z M357.13,169.471c-0.345,0.714-0.475,1.733,0,2.081
			c0.558,0.408,1.672-0.064,2.082-0.359c0.916-0.661,1.819-3.714,0-3.517C358.413,167.763,357.499,168.708,357.13,169.471z
			 M351.748,169.973c-0.335-1.071-2.15-2.817-3.086-1.723C347.336,171.027,352.802,173.337,351.748,169.973z M352.25,172.413
			c-0.055,0.793,1.613,1.358,2.583,1.22c0.94-0.135,1.533-0.725,1.723-1.436C356.102,171.341,352.323,171.346,352.25,172.413z"/>
		<path fill="#FFFFFF" d="M350.958,155.188c0.271,0.112,0.486,0.279,0.718,0.431c0.091-0.017,0.094-0.214,0-0.216
			c0.128-0.123,0.487,0.132,0.502,0.359c0.189,0.021,0.235-0.1,0.215-0.287c0.225,0.161,0.413,0.353,0.574,0.574
			c0.088-0.031,0.147-0.092,0.146-0.216c0.746,0.567,1.418,2.201,0.287,2.728c-1.088-0.709-2.108-1.48-3.521-1.866
			c1.116,0.679,2.271,1.321,3.086,2.297c-0.229,0.943-1.178,1.166-2.368,1.148c0.049-0.073,0.165-0.074,0.146-0.216
			c-0.231-0.128-0.651-0.066-0.937-0.144c-0.021-0.165,0.208-0.079,0.219-0.215c-0.206-0.153-0.548-0.173-0.789-0.287
			c0.052-0.067,0.13-0.108,0.215-0.144c-0.192-0.238-0.541-0.32-0.789-0.502c0.021-0.098,0.18-0.06,0.287-0.072
			c-0.093-0.315-0.438-0.378-0.646-0.574c-0.012-0.155,0.254-0.032,0.359-0.071c-0.142-0.293-0.495-0.367-0.574-0.718
			c0.083,0.06,0.192,0.095,0.359,0.071c-0.046-0.36-0.457-0.356-0.502-0.718c0.173-0.029,0.152,0.131,0.355,0.072
			c-0.016-0.295-0.148-0.471-0.287-0.646c0.123-0.164,0.552-0.026,0.79-0.071c0.003-0.123-0.054-0.186-0.144-0.216
			c0.208-0.236,0.609-0.045,0.933,0c0.176-0.008,0.02-0.237-0.068-0.215c0.201-0.177,0.601,0.066,0.787,0.144
			c0.136-0.127-0.02-0.223-0.145-0.287c0.208-0.156,0.605,0.11,0.79,0.215C351.246,155.455,350.939,155.399,350.958,155.188z"/>
		<path fill="#FFFFFF" d="M357.705,155.261c0.293-0.021,0.039,0.149,0.072,0.286c0.34-0.042,0.514-0.251,0.857-0.286
			c-0.001,0.143-0.192,0.091-0.144,0.286c0.132,0.104,0.5-0.167,0.79-0.144c-0.038,0.106-0.106,0.182-0.146,0.287
			c0.328-0.03,0.608-0.108,1.005-0.071c-0.021,0.094-0.126,0.112-0.144,0.215c0.146,0.165,0.596,0.026,0.861,0.072
			c-0.108,0.203-0.29,0.332-0.287,0.646c0.061,0.211,0.229-0.043,0.355,0c-0.087,0.32-0.394,0.42-0.572,0.646
			c-0.031,0.117,0.393,0.117,0.356,0c0.146,0.241-0.354,0.456-0.502,0.646c0.022,0.098,0.18,0.06,0.287,0.072
			c-0.133,0.273-0.442,0.371-0.646,0.574c0.021,0.097,0.183,0.06,0.286,0.071c-0.146,0.284-0.527,0.33-0.79,0.502
			c0.047,0.097,0.153,0.134,0.287,0.144c-0.213,0.171-0.501,0.265-0.858,0.287c-0.052,0.193,0.146,0.139,0.216,0.216
			c-0.182,0.205-0.696,0.069-0.937,0.215c0.031,0.089,0.094,0.147,0.216,0.144c-1.047,0.223-2.398-0.296-2.365-1.005
			c0.013-0.283,0.754-0.884,1.004-1.076c0.673-0.518,1.677-1.019,2.15-1.292c-1.23,0.274-2.562,1.075-3.518,1.866
			c-1.27-0.396-0.474-2.183,0.145-2.728c0.084,0.012,0.062,0.131,0.071,0.216c0.314-0.093,0.451-0.362,0.646-0.574
			c0.191-0.052-0.054,0.338,0.144,0.287c0.207-0.104,0.336-0.285,0.502-0.431c0.101,0.022,0.062,0.18,0.072,0.287
			C357.414,155.592,357.521,155.388,357.705,155.261z"/>
		<path fill="#FFFFFF" d="M353.829,160.284c0.899-0.172,2.593,0.205,2.512,1.292c-0.103,1.372-3.936,1.235-4.019-0.072
			C352.283,160.884,352.96,160.449,353.829,160.284z"/>
		<path fill="#FFFFFF" d="M351.963,160.715c-0.492,1.137-1.767,2.106-3.086,2.655C348.711,161.62,350.014,160.351,351.963,160.715z"
			/>
		<path fill="#FFFFFF" d="M359.786,163.37c-1.429-0.509-2.487-1.389-3.158-2.655C358.585,160.418,359.786,161.474,359.786,163.37z"
			/>
		<path fill="#FFFFFF" d="M356.126,162.724c3.469-0.857,4.012,5.398,0.431,4.307C354.956,166.542,354.012,163.247,356.126,162.724z"
			/>
		<path fill="#FFFFFF" d="M351.604,162.796c1.354-0.305,2.239,0.468,2.368,1.507c0.292,2.345-2.974,4.105-4.091,1.938
			C349.127,164.775,350.366,163.075,351.604,162.796z"/>
		<path fill="#FFFFFF" d="M360.504,167.748c-0.892-0.598-1.124-2.655-0.718-3.876C361.373,164.105,361.758,166.854,360.504,167.748z
			"/>
		<path fill="#FFFFFF" d="M348.662,164.016c0.53,0.31,0.429,1.286,0.359,1.938c-0.082,0.763-0.354,1.584-0.791,1.865
			C346.895,167.13,347.258,164.34,348.662,164.016z"/>
		<path fill="#FFFFFF" d="M354.044,166.958c1.818-0.268,3.415,1.645,2.153,3.23c-0.745,0.936-2.757,1.149-3.66,0
			C351.554,168.936,352.334,167.21,354.044,166.958z"/>
		<path fill="#FFFFFF" d="M359.212,167.676c1.819-0.197,0.916,2.855,0,3.517c-0.409,0.295-1.521,0.768-2.082,0.359
			c-0.475-0.348-0.345-1.367,0-2.081C357.499,168.708,358.413,167.763,359.212,167.676z"/>
		<path fill="#FFFFFF" d="M348.662,168.25c0.936-1.095,2.75,0.651,3.086,1.723C352.802,173.337,347.336,171.027,348.662,168.25z"/>
		<path fill="#FFFFFF" d="M356.557,172.197c-0.188,0.711-0.779,1.301-1.723,1.436c-0.971,0.139-2.638-0.427-2.583-1.22
			C352.323,171.346,356.102,171.341,356.557,172.197z"/>
	</g>
</g>
<circle fill="#FFFFFF" stroke="#0000FF" stroke-width="0.0283" stroke-miterlimit="10" cx="659.055" cy="396.851" r="11.339"/>
<circle fill="#FFFFFF" stroke="#0000FF" stroke-width="0.0283" stroke-miterlimit="10" cx="588.188" cy="396.851" r="28.346"/>
<circle fill="#FFFFFF" stroke="#0000FF" stroke-width="0.0283" stroke-miterlimit="10" cx="113.387" cy="113.387" r="7.086"/>
<circle fill="#FFFFFF" stroke="#0000FF" stroke-width="0.0283" stroke-miterlimit="10" cx="141.734" cy="113.387" r="7.086"/>
<circle fill="#FFFFFF" stroke="#0000FF" stroke-width="0.0283" stroke-miterlimit="10" cx="170.081" cy="113.387" r="7.086"/>
<circle fill="#FFFFFF" stroke="#0000FF" stroke-width="0.0283" stroke-miterlimit="10" cx="56.695" cy="113.387" r="7.086"/>
<circle fill="#FFFFFF" stroke="#0000FF" stroke-width="0.0283" stroke-miterlimit="10" cx="85.042" cy="113.387" r="7.086"/>
<circle fill="#FFFFFF" stroke="#0000FF" stroke-width="0.0283" stroke-miterlimit="10" cx="127.56" cy="141.733" r="7.086"/>
<circle fill="#FFFFFF" stroke="#0000FF" stroke-width="0.0283" stroke-miterlimit="10" cx="155.907" cy="141.733" r="7.086"/>
<circle fill="#FFFFFF" stroke="#0000FF" stroke-width="0.0283" stroke-miterlimit="10" cx="99.214" cy="141.733" r="7.086"/>
<circle fill="#FFFFFF" stroke="#0000FF" stroke-width="0.0283" stroke-miterlimit="10" cx="70.868" cy="141.733" r="7.086"/>
<circle fill="#FFFFFF" stroke="#0000FF" stroke-width="0.0283" stroke-miterlimit="10" cx="155.907" cy="85.041" r="7.086"/>
<circle fill="#FFFFFF" stroke="#0000FF" stroke-width="0.0283" stroke-miterlimit="10" cx="127.56" cy="85.04" r="7.086"/>
<circle fill="#FFFFFF" stroke="#0000FF" stroke-width="0.0283" stroke-miterlimit="10" cx="99.214" cy="85.04" r="7.086"/>
<circle fill="#FFFFFF" stroke="#0000FF" stroke-width="0.0283" stroke-miterlimit="10" cx="70.868" cy="85.04" r="7.086"/>
<circle fill="#FFFFFF" stroke="#0000FF" stroke-width="0.0283" stroke-miterlimit="10" cx="113.387" cy="56.694" r="7.086"/>
<circle fill="#FFFFFF" stroke="#0000FF" stroke-width="0.0283" stroke-miterlimit="10" cx="141.734" cy="56.694" r="7.086"/>
<circle fill="#FFFFFF" stroke="#0000FF" stroke-width="0.0283" stroke-miterlimit="10" cx="85.041" cy="56.694" r="7.086"/>
<circle fill="#FFFFFF" stroke="#0000FF" stroke-width="0.0283" stroke-miterlimit="10" cx="113.387" cy="170.08" r="7.086"/>
<circle fill="#FFFFFF" stroke="#0000FF" stroke-width="0.0283" stroke-miterlimit="10" cx="141.734" cy="170.08" r="7.086"/>
<circle fill="#FFFFFF" stroke="#0000FF" stroke-width="0.0283" stroke-miterlimit="10" cx="85.041" cy="170.08" r="7.086"/>
<circle fill="#FFFFFF" stroke="#0000FF" stroke-width="0.0283" stroke-miterlimit="10" cx="595.277" cy="113.387" r="7.086"/>
<circle fill="#FFFFFF" stroke="#0000FF" stroke-width="0.0283" stroke-miterlimit="10" cx="623.625" cy="113.387" r="7.086"/>
<circle fill="#FFFFFF" stroke="#0000FF" stroke-width="0.0283" stroke-miterlimit="10" cx="651.971" cy="113.387" r="7.086"/>
<circle fill="#FFFFFF" stroke="#0000FF" stroke-width="0.0283" stroke-miterlimit="10" cx="538.585" cy="113.387" r="7.087"/>
<circle fill="#FFFFFF" stroke="#0000FF" stroke-width="0.0283" stroke-miterlimit="10" cx="566.932" cy="113.387" r="7.086"/>
<circle fill="#FFFFFF" stroke="#0000FF" stroke-width="0.0283" stroke-miterlimit="10" cx="609.45" cy="141.733" r="7.087"/>
<circle fill="#FFFFFF" stroke="#0000FF" stroke-width="0.0283" stroke-miterlimit="10" cx="637.798" cy="141.733" r="7.087"/>
<circle fill="#FFFFFF" stroke="#0000FF" stroke-width="0.0283" stroke-miterlimit="10" cx="581.104" cy="141.733" r="7.087"/>
<circle fill="#FFFFFF" stroke="#0000FF" stroke-width="0.0283" stroke-miterlimit="10" cx="552.758" cy="141.733" r="7.086"/>
<circle fill="#FFFFFF" stroke="#0000FF" stroke-width="0.0283" stroke-miterlimit="10" cx="637.798" cy="85.041" r="7.087"/>
<circle fill="#FFFFFF" stroke="#0000FF" stroke-width="0.0283" stroke-miterlimit="10" cx="609.45" cy="85.04" r="7.087"/>
<circle fill="#FFFFFF" stroke="#0000FF" stroke-width="0.0283" stroke-miterlimit="10" cx="581.104" cy="85.04" r="7.087"/>
<circle fill="#FFFFFF" stroke="#0000FF" stroke-width="0.0283" stroke-miterlimit="10" cx="552.758" cy="85.04" r="7.086"/>
<circle fill="#FFFFFF" stroke="#0000FF" stroke-width="0.0283" stroke-miterlimit="10" cx="595.277" cy="56.694" r="7.086"/>
<circle fill="#FFFFFF" stroke="#0000FF" stroke-width="0.0283" stroke-miterlimit="10" cx="623.624" cy="56.694" r="7.087"/>
<circle fill="#FFFFFF" stroke="#0000FF" stroke-width="0.0283" stroke-miterlimit="10" cx="566.932" cy="56.694" r="7.086"/>
<circle fill="#FFFFFF" stroke="#0000FF" stroke-width="0.0283" stroke-miterlimit="10" cx="595.277" cy="170.08" r="7.086"/>
<circle fill="#FFFFFF" stroke="#0000FF" stroke-width="0.0283" stroke-miterlimit="10" cx="623.624" cy="170.08" r="7.087"/>
<circle fill="#FFFFFF" stroke="#0000FF" stroke-width="0.0283" stroke-miterlimit="10" cx="566.932" cy="170.08" r="7.086"/>
<path fill="#FFFFFF" stroke="#0000FF" stroke-width="0.0283" stroke-miterlimit="10" d="M457.797,107.718
	c0,1.565-1.269,2.835-2.835,2.835H253.703c-1.565,0-2.834-1.27-2.834-2.835V34.017c0-1.565,1.269-2.834,2.834-2.834h201.259
	c1.566,0,2.835,1.269,2.835,2.834V107.718z"/>
<circle fill="#FFFFFF" stroke="#0000FF" stroke-width="0.0283" stroke-miterlimit="10" cx="659.055" cy="340.158" r="8.504"/>
<circle fill="#FFFFFF" stroke="#0000FF" stroke-width="0.0283" stroke-miterlimit="10" cx="189.834" cy="368.505" r="4.5"/>
<circle fill="#FFFFFF" stroke="#0000FF" stroke-width="0.0283" stroke-miterlimit="10" cx="35.346" cy="296.221" r="4.5"/>
<path fill="#FFFFFF" stroke="#0000FF" stroke-width="0.0283" stroke-miterlimit="10" d="M269.291,633.544
	c0,3.914-3.173,7.086-7.087,7.086H7.086c-3.914,0-7.086-3.172-7.086-7.086V460.631c0-3.914,3.173-7.087,7.086-7.087h255.118
	c3.914,0,7.087,3.173,7.087,7.087V633.544L269.291,633.544z"/>
<circle fill="#FFFFFF" stroke="#0000FF" stroke-width="0.0283" stroke-miterlimit="10" cx="86.456" cy="575.433" r="4.5"/>
<circle fill="#FFFFFF" stroke="#0000FF" stroke-width="0.0283" stroke-miterlimit="10" cx="240.944" cy="503.149" r="4.5"/>
<path fill="#FFFFFF" stroke="#0000FF" stroke-width="0.0283" stroke-miterlimit="10" d="M269.291,633.542
	c0,3.914,3.173,7.088,7.087,7.088h255.118c3.914,0,7.086-3.174,7.086-7.088V460.63c0-3.914-3.173-7.086-7.086-7.086H276.378
	c-3.914,0-7.087,3.172-7.087,7.086V633.542z"/>
<circle fill="#FFFFFF" stroke="#0000FF" stroke-width="0.0283" stroke-miterlimit="10" cx="452.126" cy="574.89" r="4.5"/>
<circle fill="#FFFFFF" stroke="#0000FF" stroke-width="0.0283" stroke-miterlimit="10" cx="297.638" cy="502.605" r="4.5"/>
<path fill="#FFFFFF" stroke="#0000FF" stroke-width="0.0283" stroke-miterlimit="10" d="M118.697,485.598
	c0,2.351-1.903,4.252-4.252,4.252H18.067c-2.349,0-4.252-1.901-4.252-4.252v-14.173c0-2.35,1.903-4.252,4.252-4.252h96.378
	c2.349,0,4.252,1.902,4.252,4.252V485.598z"/>
<g>
	<g>
		<path d="M218.894,542.211c0.553-1.239,1.196-2.482,1.991-3.57c0.713-0.978,1.584-2.207,2.678-2.813
			c0.561-0.312,1.161-0.203,1.785-0.412c0.794-0.266,1.25-1.238,2.128-1.578c0.298-0.115,0.684-0.188,0.961-0.206
			c0.346-0.021,0.683,0.186,1.099,0.138c0.887-0.1,2.182-1.441,3.502-0.549c0.971-0.603,3.13-1.082,4.188-0.206
			c0.928-0.22,1.652-0.5,2.609-0.343c0.632,0.104,1.043,0.646,1.51,0.755c0.619,0.146,1.181-0.016,1.716,0.139
			c0.6,0.169,0.896,0.369,1.374,0.755c1.831-0.202,3.46,0.381,4.326,1.373c2.641-0.408,4.378,2.011,3.364,4.395
			c0.757,1.06,0.651,3.111-0.206,3.981c0.495,1.591-0.385,2.816-1.099,3.639c0.325,1.683-0.661,2.632-1.442,3.435
			c-0.055,1.98-1.374,2.7-2.541,3.57c-0.223,1.812-1.623,2.45-3.021,3.09c-0.502,1.214-1.532,1.899-2.884,2.268
			c3.371,2.441,6.194,5.869,6.797,11.054c0.125,1.071-0.06,2.217,0.481,2.953c0.335,0.457,1.032,0.833,1.579,1.305
			c2.75,2.367,5.081,6.372,5.081,11.122c0,3.854-1.452,7.137-3.639,9.683c-0.137,1.938-0.958,2.938-1.167,4.325
			c-0.184,1.22-0.12,2.229-0.274,3.158c-0.905,5.438-4.361,9.471-8.72,11.604c-0.726,0.354-1.548,0.544-2.403,0.961
			c-0.613,0.3-1.157,0.891-1.785,1.305c-1.208,0.799-2.532,1.556-3.914,2.197c-0.687,0.317-1.49,0.521-2.128,0.894
			c-0.478,0.277-0.835,0.854-1.236,1.235c-2.771,2.649-6.697,4.75-12.428,4.395c-3.437-0.213-6.276-1.767-8.376-3.434
			c-0.697-0.553-1.283-1.391-2.06-1.854c-0.776-0.465-1.747-0.646-2.541-1.028c-1.615-0.779-3.062-1.641-4.532-2.609
			c-0.707-0.466-1.342-1.104-2.06-1.51c-0.7-0.397-1.398-0.558-1.991-0.895c-3.406-1.938-6.29-5.378-7.484-9.61
			c-0.199-0.705-0.245-1.492-0.48-2.335c-0.272-0.975-0.836-1.931-1.167-2.952c-0.316-0.978-0.398-2.203-0.824-3.229
			c-0.274-0.658-0.935-1.22-1.305-1.785c-1.475-2.255-2.63-5.235-2.403-9.337c0.253-4.568,2.581-7.832,5.149-10.022
			c0.617-0.526,1.425-0.996,1.648-1.991c0.182-0.812,0.063-1.686,0.137-2.402c0.562-5.467,3.36-8.865,7.141-11.467
			c-0.921-0.406-1.688-0.967-1.991-1.99c-1.455-0.583-2.806-1.27-3.09-3.021c-0.68-0.708-1.814-1.207-2.266-2.197
			c-0.202-0.438-0.11-0.942-0.275-1.373c-0.296-0.771-1.01-0.979-1.304-1.717c-0.227-0.564,0.008-1.001-0.137-1.716
			c-0.184-0.901-1.937-1.895-1.099-3.64c-0.776-0.896-1.042-2.947-0.206-3.981c-0.892-1.854,0.185-4.089,2.06-4.463
			c0.348-0.069,0.836,0.106,1.236,0c0.555-0.148,0.996-0.877,1.58-1.101c0.369-0.141,0.875-0.221,1.304-0.272
			c0.439-0.058,0.979,0.106,1.442,0c0.565-0.132,0.994-0.693,1.579-0.824c0.481-0.105,1.022,0.033,1.511-0.067
			c0.509-0.104,0.96-0.652,1.579-0.755c0.959-0.156,1.638,0.104,2.541,0.345c1.069-0.812,3.248-0.476,4.188,0.206
			c1.191-0.552,2.656-0.026,3.502,0.549c1.996-0.531,3.185,0.748,4.188,1.646c2.21,0.028,3.365,1.675,4.395,3.09
			C217.62,539.678,218.399,540.979,218.894,542.211z M213.745,551.411c1.81-0.939,3.374-2.313,3.158-5.012
			c-0.259-3.243-2.488-6.29-4.257-7.896c-0.055,0.541-0.167,1.022-0.481,1.305c-0.987-1.05-1.784-2.29-3.021-3.09
			c0.127,0.611,0.177,1.604-0.48,1.647c-0.797-0.783-1.559-1.967-2.678-2.196c0.449,0.303,0.271,1.292-0.137,1.511
			c-1.046-0.786-2.019-1.645-3.364-2.128c-0.142,0.2,0.621,0.688,0.549,1.235c-0.025,0.192-0.117,0.341-0.344,0.479
			c-1.1-0.754-2.42-1.287-3.982-1.579c0.352,0.479,1.241,0.768,0.961,1.648c-1.394-0.231-2.384-0.866-3.982-0.894
			c0.333,0.322,1.18,0.811,0.687,1.51c-1.354-0.282-3.185-0.99-4.738-0.411c0.435,0.297,0.826,0.639,1.099,1.098
			c-1.268,0.161-2.914,0.2-4.257,0.069c0.508,0.818,1.43,2.186,1.579,3.363c-0.646-0.02-1.396,0.067-1.854-0.139
			c0.227,0.735,0.742,1.187,1.236,1.648c0.496,0.465,1.181,0.82,1.442,1.511c-0.607,0.271-1.477,0.187-2.06-0.069
			c0.774,1.24,1.922,2.106,2.953,3.092c-0.308,0.353-1.154,0.312-1.717,0.206c0.812,1.2,2.207,1.819,3.296,2.745
			c-0.338,0.28-1.157,0.366-1.717,0.205c0.821,1.124,2.699,1.787,4.051,2.609c-0.271,0.408-1.067,0.526-1.648,0.412
			c1.026,1.011,2.964,1.107,4.326,1.784c-0.271,0.395-0.709,0.618-1.305,0.688c1.031,0.894,3.334,0.511,4.737,1.03
			c-0.154,0.601-0.747,0.764-1.236,1.028c5.33,0.262,10.32-0.979,11.398-5.425c-4.447-4.913-10.296-8.427-16.41-11.673
			C202.533,544.038,208.679,547.186,213.745,551.411z M227.545,551.617c-0.477,0.469-1.658,1.345-1.716,1.854
			c-0.044,0.386,0.399,1.115,0.618,1.513c1.575,2.841,6.407,4.359,10.78,3.774c-0.593-0.163-1.108-0.4-1.236-1.029
			c1.532-0.366,3.677-0.12,4.738-0.962c-0.6-0.087-1.098-0.273-1.305-0.755c1.468-0.546,3.278-0.75,4.326-1.717
			c-0.582,0.097-1.46,0.03-1.648-0.479c1.085-0.51,2.389-1.141,3.295-1.785c0.293-0.21,0.727-0.482,0.687-0.756
			c-0.561,0.122-1.63,0.146-1.648-0.273c-0.007-0.156,0.659-0.394,0.893-0.55c0.92-0.616,1.995-1.511,2.403-2.129
			c-0.558,0.102-1.415,0.149-1.716-0.206c0.978-0.968,2.333-1.924,2.884-3.09c-0.518,0.261-1.527,0.386-1.991,0
			c0.287-0.605,0.943-0.976,1.442-1.44c0.498-0.468,1.091-0.945,1.167-1.647c-0.431,0.231-1.223,0.104-1.854,0.138
			c0.271-0.955,0.748-1.958,1.236-2.678c0.155-0.229,0.417-0.48,0.343-0.688c-1.3,0.1-3.07,0.165-4.188-0.138
			c0.32-0.413,0.734-0.73,1.099-1.101c-1.72-0.439-3.374,0.196-4.806,0.479c-0.334-0.823,0.39-1.159,0.755-1.51
			c-1.63,0.019-2.6,0.694-4.051,0.894c-0.112-1.006,0.66-1.125,1.03-1.647c-1.6,0.275-2.877,0.877-4.051,1.578
			c-0.774-0.553,0.357-1.49,0.275-1.716c-1.384,0.471-2.301,1.406-3.433,2.128c-0.347-0.343-0.48-1.211-0.069-1.579
			c-1.241,0.432-1.837,1.505-2.746,2.268c-0.67-0.186-0.442-1.136-0.48-1.647c-1.188,0.851-1.968,2.105-3.021,3.091
			c-0.241-0.354-0.336-0.854-0.48-1.306c-1.706,1.683-3.964,4.706-4.188,7.965c-0.192,2.79,1.408,4.037,3.227,4.942
			c4.962-4.237,11.279-7.486,18.126-9.611C237.138,544.407,231.598,547.646,227.545,551.617z M212.44,560.749
			c-1.35,0.799-2.772,1.705-3.296,3.296c-0.387,1.176,0.122,2.506,0.824,3.295c1.759,1.979,6.128,3.139,10.23,2.884
			c1.001-0.062,2.405-0.288,3.296-0.549c2.044-0.601,5.538-2.528,4.394-5.493c-0.617-1.599-2.718-3.021-3.982-3.707
			c-1.734-0.938-4.095-1.482-6.386-1.305C215.362,559.339,213.941,559.86,212.44,560.749z M203.377,561.161
			c-3.044,0.232-5.631,1.442-7.484,3.295c-2.19,2.19-3.81,5.495-3.365,9.477c1.771,0.062,2.959-1.021,4.188-1.717
			c0.638-0.357,1.234-0.812,1.785-1.233c2.319-1.79,4.545-3.572,6.522-5.633c1.006-1.047,2.066-2.22,2.334-3.639
			C206.384,561.087,204.737,561.056,203.377,561.161z M241.346,565.212c-1.878-2.146-4.588-3.847-7.896-4.052
			c-1.648-0.104-3.158,0.025-4.257,0.479c0.174,1.539,1.444,2.602,2.403,3.641c0.975,1.058,2.069,2.011,3.089,2.951
			c1.023,0.943,2.178,1.797,3.296,2.746c0.502,0.429,1.128,0.944,1.716,1.307c1.356,0.831,2.484,1.733,4.326,1.922
			C244.497,570.638,243.279,567.418,241.346,565.212z M223.151,573.177c-1.854,2.261-2.828,6.492-1.511,10.229
			c1.225,3.475,4.12,6.757,7.553,7.965c2.705,0.952,5.646,0.534,7.553-0.617c2.539-1.534,4.251-4.79,3.914-8.927
			c-0.271-3.312-2.252-6.452-3.982-8.104c-2.033-1.938-4.825-3.482-8.514-3.09C226.05,570.862,224.172,571.932,223.151,573.177z
			 M203.446,572.009c-2.222,1.138-4.308,3.199-5.493,5.493c-1.282,2.481-1.889,6.12-0.824,9.132c1.179,3.333,4.579,6.108,9.337,5.63
			c4.614-0.465,8.915-4.913,9.887-9.198c0.62-2.735,0.378-5.688-0.893-7.967c-1.329-2.38-4.382-4.511-8.376-4.118
			C205.666,571.118,204.45,571.495,203.446,572.009z M243.2,580.866c0,4.127,0.862,8.536,1.922,11.189
			c0.343,0.859,1.361,2.722,2.266,2.68c0.518-0.022,1.191-0.958,1.511-1.373c1.273-1.657,2.197-3.838,2.334-6.315
			c0.216-3.896-1.721-7.052-3.845-8.927c-0.684-0.604-1.957-1.729-2.746-1.578C243.64,576.73,243.2,579.502,243.2,580.866z
			 M191.225,577.09c-4.183,2.316-7.574,8.818-4.532,14.762c0.654,1.278,2.328,4.439,3.914,2.403c0.764-0.979,1.04-1.638,1.511-2.952
			c0.647-1.808,1.126-4.229,1.304-6.315c0.176-2.062,0.368-8.291-1.991-7.896C191.379,577.099,191.269,577.064,191.225,577.09z
			 M210.243,594.599c-2,2.511-2.895,6.891-0.961,10.367c1.938,3.486,6.252,5.636,10.642,5.013c4.221-0.6,7.738-3.116,8.926-7.07
			c1.083-3.605-0.529-7.191-2.266-8.995c-1.858-1.929-4.821-3.369-8.514-3.157C214.785,590.942,211.791,592.655,210.243,594.599z
			 M240.248,594.461c-1.854,0.643-3.64,2.19-4.943,3.569c-1.954,2.064-3.776,4.979-4.532,7.481
			c-0.503,1.666-0.724,3.602-0.274,5.287c0.843,3.167,5.098,2.854,8.102,1.647c4.131-1.658,7.48-5.412,7.828-10.711
			c0.254-3.878-0.739-7.999-4.532-7.555C241.127,594.276,240.781,594.276,240.248,594.461z M191.156,600.021
			c-0.233,3.854,1.049,6.856,3.09,9.133c2,2.229,4.854,3.944,8.102,4.188c3.288,0.244,4.758-1.938,4.395-5.219
			c-0.199-1.795-1.046-3.462-1.785-4.943c-0.677-1.356-1.517-2.354-2.472-3.362c-1.854-1.961-4.6-4.923-8.376-4.259
			C192.024,595.927,191.283,597.927,191.156,600.021z M212.578,613.823c-1.346,0.47-3.994,1.366-3.982,3.09
			c0.007,0.949,1.092,1.811,1.717,2.402c2.066,1.961,5.135,3.628,9.063,3.362c3.312-0.222,6.222-1.808,8.102-3.845
			c1.186-1.285,2.127-2.627,0.549-3.982c-1.55-1.328-6.473-2.098-9.201-1.922C216.663,613.069,214.626,613.109,212.578,613.823z"/>
	</g>
</g>
<g>
	<path fill="none" stroke="#0000FF" stroke-width="0.0283" stroke-miterlimit="10" d="M400.404,605.302h-0.576v-3.367
		c0-1.459-0.829-2.305-2.271-2.305h-1.618v5.672h-0.561v-12.137h2.179c1.944,0,2.811,1.009,2.811,3.224
		c0,1.08-0.216,1.893-0.666,2.413c-0.198,0.232-0.433,0.414-0.72,0.56c0.231,0.106,0.432,0.252,0.609,0.434
		c0.541,0.521,0.812,1.225,0.812,2.145V605.302L400.404,605.302z M395.938,599.054h1.619c1.604,0,2.252-0.793,2.252-2.665
		c0-1.892-0.646-2.646-2.252-2.646h-1.619V599.054z"/>
	<path fill="none" stroke="#0000FF" stroke-width="0.0283" stroke-miterlimit="10" d="M406.235,601.61h-3.205l-0.828,3.709h-0.576
		l0.954-4.214v-0.056l1.836-7.868h0.45l2.771,12.138h-0.574L406.235,601.61z M403.174,601.052h2.938l-1.479-6.338L403.174,601.052z"
		/>
	<path fill="none" stroke="#0000FF" stroke-width="0.0283" stroke-miterlimit="10" d="M408.682,601.826h0.561v0.271
		c0,1.206,0.306,1.854,0.702,2.216c0.396,0.358,0.897,0.433,1.333,0.433c1.296,0,2.032-0.953,2.032-2.558
		c0-0.863-0.342-1.439-0.756-1.817c-0.432-0.379-0.937-0.575-1.225-0.701l-0.306-0.126c-0.36-0.146-0.938-0.396-1.425-0.9
		c-0.504-0.484-0.918-1.188-0.918-2.251c0-1.816,0.938-3.223,2.596-3.223c1.71,0,2.608,1.134,2.608,3.223v0.288h-0.575v-0.288
		c0-1.816-0.668-2.646-2.033-2.646c-1.296,0-2.035,1.08-2.035,2.646c0,0.864,0.323,1.44,0.756,1.854
		c0.414,0.414,0.899,0.631,1.26,0.773l0.288,0.125c0.306,0.128,0.9,0.344,1.404,0.812s0.937,1.171,0.937,2.231
		c0,1.802-0.937,3.114-2.608,3.114c-1.729,0-2.595-1.062-2.595-3.205L408.682,601.826L408.682,601.826z"/>
	<path fill="none" stroke="#0000FF" stroke-width="0.0283" stroke-miterlimit="10" d="M415.521,599.521v5.798h-0.56v-12.138h2.18
		c1.943,0,2.826,1.062,2.826,3.169c0,2.107-0.882,3.17-2.826,3.17L415.521,599.521L415.521,599.521z M415.521,593.742v5.223h1.62
		c1.584,0,2.25-0.793,2.25-2.611c0-1.87-0.646-2.608-2.25-2.608L415.521,593.742L415.521,593.742z"/>
	<path fill="none" stroke="#0000FF" stroke-width="0.0283" stroke-miterlimit="10" d="M421.192,605.319v-12.138h1.999
		c1.854,0,2.683,1.062,2.683,3.169c0,1.045-0.216,1.839-0.63,2.358c-0.198,0.232-0.396,0.396-0.667,0.541
		c0.252,0.126,0.468,0.288,0.667,0.521c0.414,0.522,0.63,1.314,0.63,2.378c0,2.105-0.828,3.17-2.683,3.17L421.192,605.319
		L421.192,605.319z M421.77,593.742v5.223h1.423c1.492,0,2.104-0.757,2.104-2.611c0-1.87-0.594-2.608-2.104-2.608L421.77,593.742
		L421.77,593.742z M421.77,599.521v5.237h1.423c1.513,0,2.104-0.737,2.104-2.608c0-1.872-0.61-2.63-2.104-2.63L421.77,599.521
		L421.77,599.521z"/>
	<path fill="none" stroke="#0000FF" stroke-width="0.0283" stroke-miterlimit="10" d="M431.471,593.184v0.561h-3.799v5.223h3.799
		v0.56h-3.799v5.237h3.799v0.561h-4.354v-12.136L431.471,593.184L431.471,593.184z"/>
	<path fill="none" stroke="#0000FF" stroke-width="0.0283" stroke-miterlimit="10" d="M437.609,605.302h-0.576v-3.367
		c0-1.459-0.828-2.305-2.271-2.305h-1.62v5.672h-0.559v-12.137h2.179c1.944,0,2.812,1.009,2.812,3.224
		c0,1.08-0.216,1.893-0.666,2.413c-0.198,0.232-0.435,0.414-0.722,0.56c0.233,0.106,0.434,0.252,0.611,0.434
		c0.541,0.521,0.812,1.225,0.812,2.145V605.302L437.609,605.302z M433.145,599.054h1.62c1.604,0,2.25-0.793,2.25-2.665
		c0-1.892-0.646-2.646-2.25-2.646h-1.62V599.054z"/>
	<path fill="none" stroke="#0000FF" stroke-width="0.0283" stroke-miterlimit="10" d="M443.873,605.302h-0.576v-3.367
		c0-1.459-0.828-2.305-2.269-2.305h-1.621v5.672h-0.561v-12.137h2.182c1.941,0,2.809,1.009,2.809,3.224
		c0,1.08-0.216,1.893-0.666,2.413c-0.198,0.232-0.432,0.414-0.72,0.56c0.231,0.106,0.432,0.252,0.611,0.434
		c0.54,0.521,0.812,1.225,0.812,2.145L443.873,605.302L443.873,605.302z M439.408,599.054h1.621c1.602,0,2.25-0.793,2.25-2.665
		c0-1.892-0.648-2.646-2.25-2.646h-1.621V599.054z"/>
	<path fill="none" stroke="#0000FF" stroke-width="0.0283" stroke-miterlimit="10" d="M448.391,598.657l3.01-5.476h0.646
		l-3.367,6.142v5.996h-0.558v-5.996l-3.385-6.142h0.646L448.391,598.657z"/>
	<path fill="none" stroke="#0000FF" stroke-width="0.0283" stroke-miterlimit="10" d="M456.957,599.521v5.798h-0.558v-12.138h2.179
		c1.943,0,2.827,1.062,2.827,3.169c0,2.107-0.882,3.17-2.827,3.17L456.957,599.521L456.957,599.521z M456.957,593.742v5.223h1.621
		c1.584,0,2.25-0.793,2.25-2.611c0-1.87-0.648-2.608-2.25-2.608L456.957,593.742L456.957,593.742z"/>
	<path fill="none" stroke="#0000FF" stroke-width="0.0283" stroke-miterlimit="10" d="M463.293,605.319h-0.558v-12.138h0.558
		V605.319z"/>
	<path fill="none" stroke="#0000FF" stroke-width="0.0283" stroke-miterlimit="10" d="M468.206,596.389
		c0-1.312,0.342-2.144,0.846-2.608c0.504-0.471,1.152-0.597,1.747-0.597c0.576,0,1.227,0.126,1.729,0.597
		c0.504,0.469,0.846,1.296,0.846,2.608v0.288h-0.576v-0.288c0-1.854-0.702-2.646-1.999-2.646c-1.312,0-2.017,0.792-2.017,2.646
		v5.708c0,1.854,0.666,2.664,2.017,2.664c0.648,0,1.152-0.216,1.495-0.63c0.342-0.45,0.504-1.116,0.504-2.034v-0.288h0.576v0.288
		c0,1.352-0.342,2.124-0.846,2.609c-0.504,0.486-1.152,0.612-1.729,0.612c-0.594,0-1.242-0.126-1.747-0.612
		c-0.504-0.485-0.846-1.261-0.846-2.609V596.389z"/>
	<path fill="none" stroke="#0000FF" stroke-width="0.0283" stroke-miterlimit="10" d="M479.044,601.61h-3.205l-0.828,3.709h-0.575
		l0.953-4.214v-0.056l1.838-7.868h0.448l2.773,12.138h-0.576L479.044,601.61z M475.983,601.052h2.935l-1.477-6.338L475.983,601.052z
		"/>
	<path fill="none" stroke="#0000FF" stroke-width="0.0283" stroke-miterlimit="10" d="M481.491,601.826h0.558v0.271
		c0,1.206,0.309,1.854,0.702,2.216c0.396,0.358,0.9,0.433,1.333,0.433c1.296,0,2.035-0.953,2.035-2.558
		c0-0.863-0.342-1.439-0.756-1.817c-0.435-0.379-0.938-0.575-1.228-0.701l-0.307-0.128c-0.36-0.146-0.938-0.396-1.422-0.9
		c-0.504-0.484-0.918-1.188-0.918-2.251c0-1.816,0.936-3.224,2.593-3.224c1.71,0,2.611,1.135,2.611,3.224v0.288h-0.576v-0.288
		c0-1.816-0.667-2.646-2.035-2.646c-1.296,0-2.035,1.08-2.035,2.646c0,0.864,0.324,1.439,0.756,1.854
		c0.414,0.414,0.9,0.63,1.262,0.772l0.286,0.126c0.309,0.126,0.9,0.344,1.404,0.812s0.938,1.17,0.938,2.23
		c0,1.803-0.938,3.115-2.611,3.115c-1.729,0-2.593-1.062-2.593-3.205L481.491,601.826L481.491,601.826z"/>
	<path fill="none" stroke="#0000FF" stroke-width="0.0283" stroke-miterlimit="10" d="M492.111,593.184v0.561h-3.802v5.223h3.802
		v0.56h-3.802v5.237h3.802v0.561h-4.357v-12.136L492.111,593.184L492.111,593.184z"/>
	<path fill="none" stroke="#0000FF" stroke-width="0.0283" stroke-miterlimit="10" d="M500.067,603.861l2.665-10.694h0.594
		l-3.043,12.136h-0.435l-3.043-12.136h0.576L500.067,603.861z"/>
	<path fill="none" stroke="#0000FF" stroke-width="0.0283" stroke-miterlimit="10" d="M504.17,595.578l1.836-2.396h0.561v12.138
		h-0.576v-11.163l-1.387,1.781L504.17,595.578z"/>
	<path fill="none" stroke="#0000FF" stroke-width="0.0283" stroke-miterlimit="10" d="M508.31,605.319h-0.573v-0.773h0.573V605.319z
		"/>
	<path fill="none" stroke="#0000FF" stroke-width="0.0283" stroke-miterlimit="10" d="M509.138,596.425
		c0-2.068,0.723-3.241,2.25-3.241c1.516,0,2.251,1.227,2.251,3.241v5.636c0,2.019-0.756,3.261-2.251,3.261
		c-1.512,0-2.25-1.188-2.25-3.261V596.425L509.138,596.425z M509.696,602.061c0,1.803,0.558,2.7,1.689,2.7
		c1.117,0,1.677-0.897,1.677-2.7v-5.636c0-1.782-0.56-2.684-1.677-2.684c-1.134,0-1.689,0.898-1.689,2.684V602.061L509.696,602.061z
		"/>
	<path fill="none" stroke="#0000FF" stroke-width="0.0283" stroke-miterlimit="10" d="M441.244,626.919l-2.827-9.831v9.831h-0.558
		v-12.137h0.483l3.115,10.819l3.097-10.819h0.505v12.137h-0.574v-9.831l-2.812,9.831H441.244z"/>
	<path fill="none" stroke="#0000FF" stroke-width="0.0283" stroke-miterlimit="10" d="M447.219,626.919h-0.558v-12.137h0.558
		V626.919z"/>
	<path fill="none" stroke="#0000FF" stroke-width="0.0283" stroke-miterlimit="10" d="M448.354,617.988
		c0-1.313,0.343-2.145,0.847-2.609c0.504-0.47,1.15-0.596,1.747-0.596c0.575,0,1.225,0.126,1.729,0.596
		c0.504,0.468,0.848,1.296,0.848,2.609v0.288h-0.575v-0.288c0-1.854-0.702-2.646-1.999-2.646c-1.314,0-2.02,0.792-2.02,2.646v5.708
		c0,1.854,0.666,2.664,2.02,2.664c0.646,0,1.149-0.218,1.495-0.63c0.342-0.45,0.504-1.116,0.504-2.034v-0.288h0.575v0.288
		c0,1.351-0.344,2.124-0.848,2.608c-0.504,0.485-1.149,0.612-1.729,0.612c-0.597,0-1.242-0.126-1.747-0.612
		c-0.504-0.484-0.847-1.261-0.847-2.608V617.988z"/>
	<path fill="none" stroke="#0000FF" stroke-width="0.0283" stroke-miterlimit="10" d="M458.83,620.581v-5.798h0.576v12.137h-0.576
		v-5.779h-3.673v5.779h-0.576v-12.137h0.576v5.798H458.83z"/>
	<path fill="none" stroke="#0000FF" stroke-width="0.0283" stroke-miterlimit="10" d="M465.382,623.21h-3.205l-0.828,3.709h-0.573
		l0.953-4.214v-0.055l1.837-7.868h0.447l2.773,12.137h-0.576L465.382,623.21z M462.321,622.651h2.935l-1.477-6.339L462.321,622.651z
		"/>
	<path fill="none" stroke="#0000FF" stroke-width="0.0283" stroke-miterlimit="10" d="M472.185,614.783v0.56h-3.799v5.224h3.799
		v0.558h-3.799v5.239h3.799v0.56h-4.354v-12.137L472.185,614.783L472.185,614.783z"/>
	<path fill="none" stroke="#0000FF" stroke-width="0.0283" stroke-miterlimit="10" d="M477.82,626.919h-4.646v-12.137h0.576v11.577
		h4.069L477.82,626.919L477.82,626.919z"/>
	<path fill="none" stroke="#0000FF" stroke-width="0.0283" stroke-miterlimit="10" d="M487.521,614.783h0.684l-3.729,5.562
		l3.729,6.572h-0.648l-3.421-6.032l-1.225,1.819v4.213h-0.576V614.78h0.576v6.896L487.521,614.783z"/>
	<path fill="none" stroke="#0000FF" stroke-width="0.0283" stroke-miterlimit="10" d="M488.798,614.766h0.561v9.164
		c0,1.081,0.27,1.677,0.63,2.019c0.357,0.344,0.81,0.396,1.224,0.396c0.378,0,0.846-0.055,1.207-0.396
		c0.36-0.342,0.63-0.938,0.63-2.019v-9.164h0.561v9.164c0,1.227-0.345,1.98-0.792,2.413c-0.45,0.434-1.08,0.561-1.604,0.561
		c-0.558,0-1.134-0.127-1.602-0.561c-0.471-0.433-0.812-1.188-0.812-2.413L488.798,614.766L488.798,614.766z"/>
	<path fill="none" stroke="#0000FF" stroke-width="0.0283" stroke-miterlimit="10" d="M500.265,614.783h0.687l-3.729,5.562
		l3.729,6.572h-0.648l-3.421-6.032l-1.224,1.819v4.213h-0.576V614.78h0.576v6.896L500.265,614.783z"/>
	<path fill="none" stroke="#0000FF" stroke-width="0.0283" stroke-miterlimit="10" d="M506.205,623.21H503l-0.828,3.709h-0.576
		l0.954-4.214v-0.055l1.836-7.868h0.45l2.773,12.137h-0.576L506.205,623.21z M503.145,622.651h2.937l-1.478-6.339L503.145,622.651z"
		/>
	<path fill="none" stroke="#0000FF" stroke-width="0.0283" stroke-miterlimit="10" d="M513.693,626.901h-0.576v-3.367
		c0-1.459-0.829-2.307-2.271-2.307h-1.617v5.674h-0.561v-12.138h2.178c1.945,0,2.812,1.009,2.812,3.225
		c0,1.08-0.216,1.892-0.666,2.413c-0.198,0.231-0.434,0.413-0.72,0.559c0.231,0.107,0.432,0.252,0.609,0.433
		c0.541,0.521,0.812,1.226,0.812,2.145V626.901L513.693,626.901z M509.229,620.653h1.618c1.604,0,2.251-0.793,2.251-2.665
		c0-1.893-0.646-2.646-2.251-2.646h-1.618V620.653L509.229,620.653z"/>
</g>
<circle fill="#FFFFFF" stroke="#0000FF" stroke-width="0.0283" stroke-miterlimit="10" cx="326.557" cy="277.518" r="4.5"/>
<circle fill="#FFFFFF" stroke="#0000FF" stroke-width="0.0283" stroke-miterlimit="10" cx="523.837" cy="277.518" r="4.5"/>
<circle fill="#FFFFFF" stroke="#0000FF" stroke-width="0.0283" stroke-miterlimit="10" cx="523.837" cy="402.679" r="4.5"/>
<circle fill="#FFFFFF" stroke="#0000FF" stroke-width="0.0283" stroke-miterlimit="10" cx="326.557" cy="402.798" r="4.5"/>
<g>
	<path d="M40.389,388.71h-2.28v-5.232c0-1.56-0.744-2.328-2.256-2.328h-1.416v7.561H32.18v-17.689h3.672
		c3.048,0,4.488,1.752,4.488,5.041c0,1.632-0.36,2.88-1.056,3.72c-0.024,0.024-0.072,0.072-0.096,0.12
		c-0.048,0.048-0.096,0.096-0.144,0.12c0.864,0.84,1.344,1.992,1.344,3.457V388.71z M34.437,378.869h1.416
		c0.6,0,1.032-0.072,1.272-0.216c0.216-0.144,0.36-0.264,0.432-0.336c0.36-0.456,0.528-1.2,0.528-2.256
		c0-1.176-0.192-1.873-0.552-2.28c-0.384-0.384-0.936-0.48-1.68-0.48h-1.416V378.869z"/>
	<path d="M48.716,383.79h-3.072l-1.128,4.944h-2.328l4.081-17.689h1.8l4.128,17.689h-2.352L48.716,383.79z M46.172,381.533h2.016
		l-1.008-4.344L46.172,381.533z"/>
	<path d="M52.676,382.565h2.256v1.128c0,1.032,0.192,1.776,0.552,2.232c0.072,0.12,0.216,0.216,0.432,0.336
		c0.216,0.12,0.528,0.192,0.984,0.192c0.864,0,1.344-0.432,1.632-0.96c0.264-0.528,0.312-1.2,0.312-1.68
		c0-0.84-0.288-1.392-0.696-1.8c-0.408-0.384-0.96-0.648-1.464-0.864l-0.432-0.192c-0.504-0.216-1.368-0.576-2.136-1.32
		c-0.96-0.936-1.44-2.112-1.44-3.552c0-1.512,0.408-2.784,1.176-3.672c0.744-0.864,1.8-1.392,3.048-1.392
		c1.729,0,2.688,0.744,3.192,1.392c0.696,0.888,1.032,2.112,1.032,3.672v1.128h-2.28v-1.128c0-1.368-0.312-2.112-0.72-2.448
		c-0.408-0.336-0.912-0.336-1.224-0.336c-0.936,0-1.392,0.504-1.656,1.128c-0.288,0.624-0.312,1.344-0.312,1.656
		c0,0.84,0.288,1.392,0.696,1.824c0.408,0.432,0.96,0.744,1.536,0.96l0.384,0.168c0.456,0.192,1.32,0.504,2.088,1.248
		c0.984,0.912,1.488,2.088,1.488,3.528c0,2.712-1.512,4.896-4.225,4.896c-2.808,0-4.224-1.848-4.224-5.017V382.565z"/>
	<path d="M64.46,381.005v7.705h-2.256v-17.689h3.672c3,0,4.512,1.8,4.512,4.968c0,3.24-1.464,5.017-4.512,5.017H64.46z
		 M64.46,373.301v5.424h1.416c0.624,0,1.056-0.072,1.272-0.216c0.216-0.144,0.36-0.264,0.432-0.336
		c0.36-0.36,0.528-1.104,0.528-2.184c0-1.152-0.192-1.824-0.552-2.208c-0.384-0.384-0.936-0.48-1.68-0.48H64.46z"/>
	<path d="M74.396,388.734H72.14v-17.689h2.256V388.734z"/>
	<path d="M91.868,388.71h-2.28v-5.232c0-1.56-0.744-2.328-2.256-2.328h-1.416v7.561h-2.256v-17.689h3.672
		c3.048,0,4.488,1.752,4.488,5.041c0,1.632-0.36,2.88-1.056,3.72c-0.024,0.024-0.072,0.072-0.096,0.12
		c-0.048,0.048-0.096,0.096-0.144,0.12c0.864,0.84,1.344,1.992,1.344,3.457V388.71z M85.916,378.869h1.416
		c0.6,0,1.032-0.072,1.272-0.216c0.216-0.144,0.36-0.264,0.432-0.336c0.36-0.456,0.528-1.2,0.528-2.256
		c0-1.176-0.192-1.873-0.552-2.28c-0.384-0.384-0.936-0.48-1.68-0.48h-1.416V378.869z"/>
	<path d="M100.196,383.79h-3.072l-1.128,4.944h-2.328l4.081-17.689h1.8l4.128,17.689h-2.352L100.196,383.79z M97.651,381.533h2.016
		l-1.008-4.344L97.651,381.533z"/>
	<path d="M104.155,388.734v-17.689h3.528c3.048,0,4.488,1.872,4.488,5.112v7.441c0,3.24-1.44,5.136-4.488,5.136H104.155z
		 M106.411,373.301v13.177h1.272c0.576,0,1.128-0.072,1.536-0.456c0.384-0.384,0.672-1.104,0.672-2.424v-7.441
		c0-1.32-0.288-2.04-0.672-2.424c-0.408-0.384-0.96-0.432-1.536-0.432H106.411z"/>
	<path d="M116.539,388.734h-2.256v-17.689h2.256V388.734z"/>
	<path d="M118.411,376.061c0-1.561,0.336-2.785,1.008-3.648c0.264-0.312,0.624-0.648,1.152-0.936
		c0.528-0.264,1.176-0.456,2.04-0.456c1.729,0,2.688,0.744,3.192,1.392c0.672,0.864,1.008,2.088,1.008,3.648v7.608
		c0,1.56-0.336,2.784-1.008,3.648c-0.504,0.648-1.464,1.392-3.192,1.392c-1.704,0-2.688-0.744-3.192-1.392
		c-0.672-0.864-1.008-2.088-1.008-3.648V376.061z M120.667,383.669c0,1.416,0.312,2.088,0.72,2.424
		c0.408,0.336,0.864,0.36,1.224,0.36c0.312,0,0.816-0.024,1.224-0.36c0.408-0.336,0.72-1.008,0.72-2.424v-7.608
		c0-1.368-0.312-2.088-0.72-2.424c-0.408-0.336-0.912-0.336-1.224-0.336c-0.36,0-0.816,0-1.224,0.336
		c-0.408,0.336-0.72,1.056-0.72,2.424V383.669z"/>
	<path d="M140.803,382.901l3-11.881h2.328l-4.44,17.689h-1.776l-4.393-17.689h2.328L140.803,382.901z"/>
	<path d="M146.586,375.077l2.832-4.032h2.185v17.689h-2.256v-13.585l-1.008,1.392L146.586,375.077z"/>
	<path d="M155.443,388.734h-2.256v-2.544h2.256V388.734z"/>
	<path d="M157.65,376.109c0-3.048,1.176-5.064,3.744-5.064c2.568,0,3.769,2.016,3.769,5.064v7.513c0,3.048-1.2,5.112-3.769,5.112
		c-2.568,0-3.744-2.112-3.744-5.112V376.109z M159.907,383.622c0,0.72,0.072,1.272,0.192,1.656c0.24,0.768,0.576,1.08,0.912,1.152
		c0.168,0.024,0.288,0.048,0.384,0.048c0.192,0,0.576,0,0.888-0.36c0.168-0.168,0.312-0.456,0.432-0.84
		c0.12-0.384,0.168-0.937,0.168-1.656v-7.513c0-0.696-0.048-1.248-0.168-1.632c-0.24-0.744-0.576-1.056-0.912-1.128
		c-0.168-0.024-0.312-0.048-0.408-0.048c-0.192,0-0.576,0-0.888,0.36c-0.168,0.168-0.288,0.456-0.408,0.816
		c-0.12,0.384-0.192,0.936-0.192,1.632V383.622z"/>
	<path d="M36.885,417.51l-2.448-8.473v8.473H32.18V399.82h1.992l3.576,12.457l3.552-12.457h1.992v17.689h-2.256v-8.473l-2.448,8.473
		H36.885z"/>
	<path d="M48.068,417.534h-2.256v-17.689h2.256V417.534z"/>
	<path d="M49.94,404.885c0-1.56,0.336-2.784,1.008-3.648c0.504-0.648,1.464-1.392,3.192-1.392c1.729,0,2.665,0.744,3.168,1.392
		c0.696,0.888,1.032,2.088,1.032,3.648v1.128h-2.28v-1.128c0-1.368-0.312-2.112-0.696-2.448c-0.408-0.336-0.912-0.336-1.224-0.336
		c-0.36,0-0.816,0-1.224,0.336c-0.408,0.336-0.72,1.08-0.72,2.448v7.584c0,1.032,0.192,1.8,0.552,2.256
		c0.072,0.12,0.216,0.24,0.432,0.36s0.528,0.192,0.96,0.192c0.864,0,1.2-0.336,1.392-0.552c0.36-0.48,0.528-1.224,0.528-2.256
		v-1.128h2.28v1.128c0,1.56-0.336,2.76-1.032,3.648c-0.504,0.648-1.44,1.416-3.168,1.416c-0.864,0-1.512-0.192-2.04-0.48
		c-0.528-0.264-0.888-0.624-1.152-0.936c-0.672-0.864-1.008-2.088-1.008-3.648V404.885z"/>
	<path d="M64.916,407.549v-7.705h2.28v17.689h-2.28v-7.705h-3.408v7.705h-2.256v-17.689h2.256v7.705H64.916z"/>
	<path d="M75.596,412.589h-3.072l-1.128,4.944h-2.328l4.081-17.689h1.8l4.128,17.689h-2.352L75.596,412.589z M73.052,410.333h2.016
		l-1.008-4.344L73.052,410.333z"/>
	<path d="M86.876,399.844v2.256h-5.064v5.448h5.064v2.256h-5.064v5.472h5.064v2.256h-7.321v-17.689H86.876z"/>
	<path d="M96.188,417.51h-7.705V399.82h2.256v15.433h5.448V417.51z"/>
	<path d="M109.051,408.101l5.208,9.409h-2.592l-4.032-7.249l-0.936,1.464v5.785h-2.256v-6.409h-0.024l0.024-0.048V399.82h2.256
		v7.729l5.016-7.729h2.712L109.051,408.101z"/>
	<path d="M115.195,399.82h2.256v12.985c0,1.224,0.264,1.848,0.624,2.136c0.36,0.312,0.768,0.312,1.08,0.312s0.72,0,1.08-0.312
		c0.36-0.288,0.624-0.912,0.624-2.136V399.82h2.256v12.985c0,1.464-0.312,2.592-0.96,3.384c-0.48,0.648-1.392,1.32-3,1.32
		c-1.608,0-2.521-0.672-3-1.32c-0.648-0.792-0.96-1.92-0.96-3.384V399.82z"/>
	<path d="M129.547,408.101l5.208,9.409h-2.592l-4.032-7.249l-0.936,1.464v5.785h-2.256v-6.409h-0.024l0.024-0.048V399.82h2.256
		v7.729l5.017-7.729h2.712L129.547,408.101z"/>
	<path d="M142.219,412.589h-3.072l-1.128,4.944h-2.328l4.081-17.689h1.8l4.128,17.689h-2.352L142.219,412.589z M139.675,410.333
		h2.016l-1.008-4.344L139.675,410.333z"/>
	<path d="M154.387,417.51h-2.28v-5.232c0-1.56-0.744-2.328-2.256-2.328h-1.416v7.561h-2.256V399.82h3.672
		c3.048,0,4.488,1.752,4.488,5.041c0,1.632-0.36,2.88-1.056,3.72c-0.024,0.024-0.072,0.072-0.096,0.12
		c-0.048,0.048-0.096,0.096-0.144,0.12c0.864,0.84,1.344,1.992,1.344,3.457V417.51z M148.435,407.669h1.416
		c0.6,0,1.032-0.072,1.272-0.216c0.216-0.144,0.36-0.264,0.432-0.336c0.36-0.456,0.528-1.2,0.528-2.256
		c0-1.176-0.192-1.873-0.552-2.28c-0.384-0.384-0.936-0.48-1.68-0.48h-1.416V407.669z"/>
	<path d="M171.091,415.277v2.256h-7.513v-1.128c0-1.464,0.288-2.616,0.792-3.745c0.504-1.128,1.176-2.16,2.016-3.408
		c0.336-0.48,0.648-0.912,0.936-1.296c0.456-0.6,0.816-1.104,1.08-1.632c0.264-0.528,0.408-1.08,0.408-1.848
		c0-0.288-0.048-0.888-0.24-1.416c-0.216-0.528-0.576-0.96-1.249-0.96c-0.264,0-0.624,0-0.936,0.288
		c-0.312,0.312-0.552,0.937-0.552,2.16v1.152h-2.256v-1.152c0-1.44,0.288-2.568,0.888-3.36c0.456-0.648,1.32-1.344,2.856-1.344
		c1.08,0,2.016,0.456,2.665,1.224c0.648,0.792,1.056,1.944,1.08,3.288h0.024v0.192h-0.024c-0.024,1.128-0.264,1.968-0.624,2.712
		c-0.36,0.768-0.816,1.392-1.296,2.04c-0.288,0.384-0.576,0.768-0.864,1.224c-0.672,1.032-1.224,1.824-1.608,2.568
		c-0.384,0.768-0.624,1.416-0.744,2.184H171.091z"/>
	<path d="M172.218,404.909c0-3.048,1.176-5.064,3.744-5.064c2.568,0,3.769,2.016,3.769,5.064v7.513c0,3.048-1.2,5.112-3.769,5.112
		c-2.568,0-3.744-2.112-3.744-5.112V404.909z M174.474,412.421c0,0.72,0.072,1.272,0.192,1.656c0.24,0.768,0.576,1.08,0.912,1.152
		c0.168,0.024,0.288,0.048,0.384,0.048c0.192,0,0.576,0,0.888-0.36c0.168-0.168,0.312-0.456,0.432-0.84
		c0.12-0.384,0.168-0.937,0.168-1.656v-7.513c0-0.696-0.048-1.248-0.168-1.632c-0.24-0.744-0.576-1.056-0.912-1.128
		c-0.168-0.024-0.312-0.048-0.408-0.048c-0.192,0-0.576,0-0.888,0.36c-0.168,0.168-0.288,0.456-0.408,0.816
		c-0.12,0.384-0.192,0.936-0.192,1.632V412.421z"/>
	<path d="M181.242,403.876l2.832-4.032h2.185v17.689h-2.256v-13.585l-1.008,1.392L181.242,403.876z"/>
	<path d="M193.794,408.749c0,0.024,0.024,0.048,0.048,0.072c0.696,0.648,1.512,1.848,1.512,3.792c0,1.32-0.288,2.424-0.84,3.288
		c-0.696,1.08-1.656,1.632-2.928,1.632c-1.248,0-2.208-0.504-2.904-1.488c-0.552-0.864-0.84-2.016-0.84-3.552v-1.128h2.256v1.128
		c0,0.672,0.048,1.176,0.168,1.512c0.192,0.696,0.36,0.912,0.648,1.104c0.144,0.12,0.36,0.168,0.672,0.168
		c0.696,0,1.08-0.576,1.272-1.176c0.192-0.6,0.216-1.272,0.216-1.488c0-1.056-0.36-1.752-0.792-2.184s-1.008-0.6-1.32-0.6h-1.104
		v-2.256h1.104c0.312,0,0.888-0.192,1.32-0.624s0.792-1.104,0.792-2.16c0-0.072,0-0.24-0.024-0.528
		c-0.048-0.576-0.24-1.272-0.624-1.776c-0.216-0.264-0.48-0.384-0.84-0.384c-0.192,0-0.576,0-0.888,0.36
		c-0.168,0.168-0.288,0.456-0.408,0.816c-0.12,0.384-0.192,0.936-0.192,1.632v1.128h-2.256v-1.128c0-3.048,1.224-5.064,3.744-5.064
		c2.521,0,3.769,2.28,3.769,4.944c0,1.944-0.816,3.145-1.512,3.792l-0.12,0.12L193.794,408.749z"/>
</g>
<path fill="#FFFFFF" stroke="#0000FF" stroke-width="0.0283" stroke-miterlimit="10" d="M680.314,588.19
	c0,3.914-3.173,7.086-7.087,7.086H545.669c-3.914,0-7.087-3.172-7.087-7.086V460.631c0-3.914,3.173-7.087,7.087-7.087h127.559
	c3.914,0,7.087,3.173,7.087,7.087V588.19z"/>
<g>
	<path fill="none" stroke="#0000FF" stroke-width="0.0283" stroke-miterlimit="10" d="M564.379,478.511v-13.27h2.557
		c1.134,0,1.963,0.342,2.484,1.008c0.521,0.594,0.774,1.513,0.774,2.719c0,1.207-0.253,2.107-0.774,2.737
		c-0.018,0.036-0.072,0.09-0.145,0.162c0.072,0.072,0.127,0.126,0.145,0.18c0.521,0.63,0.774,1.53,0.774,2.737
		s-0.253,2.125-0.774,2.719c-0.54,0.666-1.368,1.008-2.484,1.008H564.379z M566.07,466.934v4.087h0.865
		c0.378,0,0.666-0.054,0.828-0.144s0.288-0.162,0.342-0.252c0.252-0.306,0.378-0.846,0.378-1.657c0-0.936-0.161-1.44-0.432-1.729
		c-0.288-0.27-0.685-0.306-1.116-0.306H566.07z M566.07,472.713v4.105h0.865c0.432,0,0.828-0.036,1.116-0.324
		c0.271-0.27,0.432-0.774,0.432-1.71c0-0.955-0.18-1.477-0.45-1.765c-0.287-0.27-0.666-0.306-1.098-0.306H566.07z"/>
	<path fill="none" stroke="#0000FF" stroke-width="0.0283" stroke-miterlimit="10" d="M576.926,478.493h-5.779v-13.27h1.692v11.578
		h4.087V478.493z"/>
	<path fill="none" stroke="#0000FF" stroke-width="0.0283" stroke-miterlimit="10" d="M582.451,474.802h-2.305l-0.846,3.709h-1.746
		l3.061-13.27h1.35l3.098,13.27h-1.765L582.451,474.802z M580.543,473.11h1.513l-0.757-3.259L580.543,473.11z"/>
	<path fill="none" stroke="#0000FF" stroke-width="0.0283" stroke-miterlimit="10" d="M585.42,469.022
		c0-1.17,0.252-2.089,0.756-2.737c0.379-0.486,1.099-1.044,2.395-1.044c1.297,0,1.999,0.558,2.377,1.044
		c0.522,0.666,0.774,1.566,0.774,2.737v0.846h-1.71v-0.846c0-1.026-0.234-1.584-0.522-1.836c-0.306-0.252-0.685-0.252-0.919-0.252
		c-0.27,0-0.611,0-0.918,0.252c-0.306,0.252-0.54,0.81-0.54,1.836v5.689c0,0.774,0.144,1.351,0.414,1.693
		c0.054,0.09,0.162,0.18,0.324,0.27c0.162,0.09,0.396,0.144,0.72,0.144c0.648,0,0.9-0.252,1.045-0.414
		c0.27-0.36,0.396-0.918,0.396-1.693v-0.846h1.71v0.846c0,1.17-0.252,2.071-0.774,2.737c-0.378,0.486-1.08,1.062-2.377,1.062
		c-0.647,0-1.134-0.144-1.529-0.36c-0.396-0.198-0.667-0.468-0.865-0.702c-0.504-0.648-0.756-1.566-0.756-2.737V469.022z"/>
	<path fill="none" stroke="#0000FF" stroke-width="0.0283" stroke-miterlimit="10" d="M595.879,471.435l3.907,7.058h-1.944
		l-3.025-5.438l-0.702,1.098v4.339h-1.692v-4.807h-0.018l0.018-0.036v-8.427h1.692v5.798l3.763-5.798h2.035L595.879,471.435z"/>
	<path fill="none" stroke="#0000FF" stroke-width="0.0283" stroke-miterlimit="10" d="M610.927,474.802h-2.305l-0.847,3.709h-1.746
		l3.061-13.27h1.351l3.097,13.27h-1.764L610.927,474.802z M609.019,473.11h1.512l-0.756-3.259L609.019,473.11z"/>
	<path fill="none" stroke="#0000FF" stroke-width="0.0283" stroke-miterlimit="10" d="M613.896,469.022
		c0-1.17,0.252-2.089,0.756-2.737c0.379-0.486,1.099-1.044,2.396-1.044c1.296,0,1.998,0.558,2.376,1.044
		c0.522,0.666,0.774,1.566,0.774,2.737v0.846h-1.71v-0.846c0-1.026-0.234-1.584-0.522-1.836c-0.307-0.252-0.685-0.252-0.918-0.252
		c-0.271,0-0.612,0-0.919,0.252c-0.306,0.252-0.54,0.81-0.54,1.836v5.689c0,0.774,0.145,1.351,0.414,1.693
		c0.055,0.09,0.162,0.18,0.324,0.27c0.162,0.09,0.396,0.144,0.721,0.144c0.647,0,0.899-0.252,1.044-0.414
		c0.271-0.36,0.396-0.918,0.396-1.693v-0.846h1.71v0.846c0,1.17-0.252,2.071-0.774,2.737c-0.378,0.486-1.08,1.062-2.376,1.062
		c-0.648,0-1.135-0.144-1.531-0.36c-0.396-0.198-0.666-0.468-0.864-0.702c-0.504-0.648-0.756-1.566-0.756-2.737V469.022z"/>
	<path fill="none" stroke="#0000FF" stroke-width="0.0283" stroke-miterlimit="10" d="M627.037,478.493h-1.711v-3.925
		c0-1.17-0.559-1.746-1.692-1.746h-1.062v5.671h-1.692v-13.27h2.755c2.286,0,3.367,1.314,3.367,3.781
		c0,1.225-0.271,2.161-0.792,2.791c-0.019,0.018-0.055,0.054-0.072,0.09c-0.036,0.036-0.072,0.072-0.108,0.09
		c0.648,0.63,1.009,1.495,1.009,2.593V478.493z M622.571,471.111h1.062c0.45,0,0.774-0.054,0.954-0.162
		c0.162-0.108,0.271-0.198,0.324-0.252c0.271-0.342,0.396-0.9,0.396-1.692c0-0.882-0.145-1.404-0.414-1.71
		c-0.288-0.288-0.703-0.36-1.261-0.36h-1.062V471.111z"/>
	<path fill="none" stroke="#0000FF" stroke-width="0.0283" stroke-miterlimit="10" d="M632.472,470.103l2.701-4.861h1.944
		l-3.799,6.842v6.428h-1.692v-6.428l-3.781-6.842h1.944L632.472,470.103z"/>
	<path fill="none" stroke="#0000FF" stroke-width="0.0283" stroke-miterlimit="10" d="M643.272,478.493h-5.779v-13.27h1.692v11.578
		h4.087V478.493z"/>
	<path fill="none" stroke="#0000FF" stroke-width="0.0283" stroke-miterlimit="10" d="M646.133,478.511h-1.692v-13.27h1.692V478.511
		z"/>
	<path fill="none" stroke="#0000FF" stroke-width="0.0283" stroke-miterlimit="10" d="M647.537,469.022
		c0-1.17,0.252-2.089,0.756-2.737c0.379-0.486,1.099-1.044,2.396-1.044c1.296,0,1.998,0.558,2.376,1.044
		c0.522,0.666,0.774,1.566,0.774,2.737v0.846h-1.71v-0.846c0-1.026-0.234-1.584-0.522-1.836c-0.307-0.252-0.685-0.252-0.918-0.252
		c-0.271,0-0.612,0-0.919,0.252c-0.306,0.252-0.54,0.81-0.54,1.836v5.689c0,0.774,0.145,1.351,0.414,1.693
		c0.054,0.09,0.162,0.18,0.324,0.27c0.162,0.09,0.396,0.144,0.721,0.144c0.647,0,0.899-0.252,1.044-0.414
		c0.27-0.36,0.396-0.918,0.396-1.693v-0.846h1.71v0.846c0,1.17-0.252,2.071-0.774,2.737c-0.378,0.486-1.08,1.062-2.376,1.062
		c-0.648,0-1.135-0.144-1.531-0.36c-0.396-0.198-0.666-0.468-0.864-0.702c-0.504-0.648-0.756-1.566-0.756-2.737V469.022z"/>
</g>
<g>
	<path fill="none" stroke="#FF00FF" stroke-width="0.0283" stroke-miterlimit="10" d="M552.867,498.984l1.75-6.934h1.359
		l-2.592,10.323h-1.037l-2.562-10.323h1.357L552.867,498.984z"/>
	<path fill="none" stroke="#FF00FF" stroke-width="0.0283" stroke-miterlimit="10" d="M557.555,502.388h-1.316v-1.485h1.316V502.388
		z"/>
	<path fill="none" stroke="#FF00FF" stroke-width="0.0283" stroke-miterlimit="10" d="M567.65,502.374h-4.496v-10.323h1.316v9.007
		h3.18V502.374z"/>
	<path fill="none" stroke="#FF00FF" stroke-width="0.0283" stroke-miterlimit="10" d="M569.875,502.388h-1.316v-10.324h1.316
		V502.388z"/>
	<path fill="none" stroke="#FF00FF" stroke-width="0.0283" stroke-miterlimit="10" d="M570.967,494.992
		c0-1.849,0.826-2.928,2.451-2.928c1.639,0,2.465,1.079,2.465,2.928v0.658h-1.33v-0.658c0-0.742-0.141-1.148-0.352-1.373
		c-0.223-0.21-0.504-0.238-0.783-0.238c-0.281,0-0.561,0.028-0.771,0.238c-0.223,0.224-0.363,0.63-0.363,1.373v4.455
		c0,0.826,0.182,1.218,0.42,1.415s0.504,0.21,0.715,0.21c0.209,0,0.49-0.014,0.729-0.21c0.225-0.196,0.406-0.588,0.406-1.415v-0.785
		h-1.598v-1.331h2.928v2.115c0,0.924-0.195,1.639-0.602,2.129c-0.295,0.378-0.855,0.812-1.863,0.812
		c-0.994,0-1.555-0.434-1.85-0.812c-0.406-0.49-0.602-1.205-0.602-2.129V494.992z"/>
	<path fill="none" stroke="#FF00FF" stroke-width="0.0283" stroke-miterlimit="10" d="M580.055,496.561v-4.497h1.33v10.324h-1.33
		v-4.497h-1.99v4.497h-1.316v-10.324h1.316v4.497H580.055z"/>
	<path fill="none" stroke="#FF00FF" stroke-width="0.0283" stroke-miterlimit="10" d="M582.475,492.051h5.84v1.331h-2.254v8.993
		h-1.332v-8.993h-2.254V492.051z"/>
</g>
<g>
	<path fill="none" stroke="#FF0000" stroke-width="0.0283" stroke-miterlimit="10" d="M552.867,543.465l1.752-6.934h1.357
		l-2.592,10.324h-1.035l-2.564-10.324h1.359L552.867,543.465z"/>
	<path fill="none" stroke="#FF0000" stroke-width="0.0283" stroke-miterlimit="10" d="M557.557,546.869h-1.316v-1.484h1.316V546.869
		z"/>
	<path fill="none" stroke="#FF0000" stroke-width="0.0283" stroke-miterlimit="10" d="M566.461,541.042v-4.497h1.332v10.324h-1.332
		v-4.497h-1.988v4.497h-1.316v-10.324h1.316v4.497H566.461z"/>
	<path fill="none" stroke="#FF0000" stroke-width="0.0283" stroke-miterlimit="10" d="M573.154,536.545v1.317h-2.957v3.18h2.957
		v1.317h-2.957v3.194h2.957v1.316h-4.273v-10.324H573.154z"/>
	<path fill="none" stroke="#FF0000" stroke-width="0.0283" stroke-miterlimit="10" d="M577.898,543.983h-1.793l-0.658,2.886h-1.357
		l2.381-10.324h1.051l2.408,10.324h-1.371L577.898,543.983z M576.414,542.667h1.178l-0.59-2.536L576.414,542.667z"/>
	<path fill="none" stroke="#FF0000" stroke-width="0.0283" stroke-miterlimit="10" d="M583.289,543.465l1.752-6.934h1.357
		l-2.592,10.324h-1.035l-2.564-10.324h1.359L583.289,543.465z"/>
	<path fill="none" stroke="#FF0000" stroke-width="0.0283" stroke-miterlimit="10" d="M589.842,540.328l2.102-3.782h1.512
		l-2.955,5.323v5h-1.316v-5l-2.941-5.323h1.512L589.842,540.328z"/>
</g>
<g>
	<path fill="none" stroke="#00FF00" stroke-width="0.0283" stroke-miterlimit="10" d="M552.867,520.79l1.751-6.934h1.358
		l-2.592,10.323h-1.036l-2.563-10.323h1.358L552.867,520.79z"/>
	<path fill="none" stroke="#00FF00" stroke-width="0.0283" stroke-miterlimit="10" d="M557.556,524.193h-1.316v-1.485h1.316V524.193
		z"/>
	<path fill="none" stroke="#00FF00" stroke-width="0.0283" stroke-miterlimit="10" d="M565.9,524.179l-1.429-4.944v4.944h-1.316
		v-10.323h1.163l2.087,7.27l2.073-7.27h1.162v10.323h-1.316v-4.944l-1.429,4.944H565.9z"/>
	<path fill="none" stroke="#00FF00" stroke-width="0.0283" stroke-miterlimit="10" d="M574.959,513.87v1.317h-2.956v3.18h2.956
		v1.317h-2.956v3.193h2.956v1.317h-4.272V513.87H574.959z"/>
	<path fill="none" stroke="#00FF00" stroke-width="0.0283" stroke-miterlimit="10" d="M575.895,524.193V513.87h2.06
		c1.778,0,2.619,1.093,2.619,2.984v4.342c0,1.891-0.841,2.998-2.619,2.998H575.895z M577.211,515.187v7.69h0.743
		c0.336,0,0.658-0.042,0.896-0.266c0.224-0.224,0.392-0.644,0.392-1.415v-4.342c0-0.771-0.168-1.191-0.392-1.415
		c-0.238-0.224-0.561-0.252-0.896-0.252H577.211z"/>
	<path fill="none" stroke="#00FF00" stroke-width="0.0283" stroke-miterlimit="10" d="M583.12,524.193h-1.317V513.87h1.317V524.193z
		"/>
	<path fill="none" stroke="#00FF00" stroke-width="0.0283" stroke-miterlimit="10" d="M584.211,513.856h1.316v7.578
		c0,0.714,0.154,1.079,0.364,1.247c0.21,0.182,0.448,0.182,0.631,0.182c0.182,0,0.42,0,0.63-0.182
		c0.21-0.168,0.364-0.532,0.364-1.247v-7.578h1.316v7.578c0,0.854-0.182,1.513-0.56,1.975c-0.28,0.378-0.812,0.77-1.751,0.77
		s-1.471-0.392-1.751-0.77c-0.379-0.462-0.561-1.121-0.561-1.975V513.856z"/>
	<path fill="none" stroke="#00FF00" stroke-width="0.0283" stroke-miterlimit="10" d="M592.626,524.179l-1.429-4.944v4.944h-1.316
		v-10.323h1.163l2.087,7.27l2.073-7.27h1.162v10.323h-1.316v-4.944l-1.429,4.944H592.626z"/>
</g>
<g>
	<path fill="#E6E6E6" d="M635.376,501.939h-1.331v-3.054c0-0.91-0.434-1.358-1.316-1.358h-0.826v4.412h-1.316v-10.323h2.143
		c1.779,0,2.619,1.022,2.619,2.941c0,0.953-0.21,1.681-0.615,2.171c-0.015,0.014-0.043,0.042-0.057,0.07
		c-0.028,0.028-0.057,0.056-0.084,0.07c0.504,0.49,0.784,1.163,0.784,2.017V501.939z M631.902,496.196h0.826
		c0.35,0,0.603-0.042,0.742-0.126c0.127-0.084,0.211-0.154,0.252-0.196c0.211-0.266,0.309-0.701,0.309-1.317
		c0-0.687-0.111-1.093-0.322-1.331c-0.225-0.224-0.547-0.28-0.98-0.28h-0.826V496.196z"/>
	<path fill="#E6E6E6" d="M637.74,501.953h-1.316v-1.485h1.316V501.953z"/>
	<path fill="#E6E6E6" d="M647.836,501.939h-4.496v-10.323h1.316v9.007h3.18V501.939z"/>
	<path fill="#E6E6E6" d="M650.06,501.953h-1.316v-10.324h1.316V501.953z"/>
	<path fill="#E6E6E6" d="M651.15,494.557c0-1.849,0.827-2.928,2.451-2.928c1.64,0,2.466,1.079,2.466,2.928v0.658h-1.331v-0.658
		c0-0.742-0.14-1.148-0.35-1.373c-0.225-0.21-0.504-0.238-0.785-0.238c-0.279,0-0.56,0.028-0.77,0.238
		c-0.225,0.224-0.364,0.63-0.364,1.373v4.455c0,0.826,0.183,1.218,0.42,1.415c0.238,0.196,0.505,0.21,0.714,0.21
		c0.211,0,0.49-0.014,0.729-0.21c0.225-0.196,0.406-0.588,0.406-1.415v-0.785h-1.596v-1.331h2.927v2.115
		c0,0.924-0.196,1.639-0.603,2.129c-0.294,0.378-0.854,0.812-1.863,0.812c-0.994,0-1.555-0.434-1.848-0.812
		c-0.406-0.49-0.604-1.205-0.604-2.129V494.557z"/>
	<path fill="#E6E6E6" d="M660.238,496.126v-4.497h1.332v10.324h-1.332v-4.497h-1.988v4.497h-1.316v-10.324h1.316v4.497H660.238z"/>
	<path fill="#E6E6E6" d="M662.658,491.616h5.842v1.331h-2.256v8.993h-1.33v-8.993h-2.256V491.616z"/>
</g>
<g>
	<path d="M630.561,546.42h-1.33v-3.054c0-0.91-0.434-1.358-1.316-1.358h-0.826v4.412h-1.317v-10.323h2.144
		c1.779,0,2.619,1.022,2.619,2.941c0,0.953-0.211,1.681-0.617,2.171c-0.014,0.014-0.041,0.042-0.055,0.07
		c-0.029,0.028-0.057,0.056-0.084,0.07c0.504,0.49,0.783,1.163,0.783,2.017V546.42z M627.088,540.677h0.826
		c0.35,0,0.602-0.042,0.742-0.126c0.126-0.084,0.21-0.154,0.252-0.196c0.21-0.266,0.309-0.701,0.309-1.317
		c0-0.687-0.112-1.093-0.322-1.331c-0.225-0.224-0.547-0.28-0.98-0.28h-0.826V540.677z"/>
	<path d="M632.926,546.434h-1.317v-1.484h1.317V546.434z"/>
	<path d="M641.83,540.607v-4.497h1.331v10.323h-1.331v-4.496h-1.988v4.496h-1.317V536.11h1.317v4.497H641.83z"/>
	<path d="M648.522,536.11v1.317h-2.956v3.18h2.956v1.317h-2.956v3.193h2.956v1.316h-4.272V536.11H648.522z"/>
	<path d="M653.268,543.548h-1.793l-0.658,2.885h-1.358l2.382-10.323h1.05l2.409,10.323h-1.373L653.268,543.548z M651.783,542.232
		h1.177l-0.589-2.536L651.783,542.232z"/>
	<path d="M658.658,543.03l1.75-6.934h1.359l-2.592,10.323h-1.036l-2.563-10.323h1.359L658.658,543.03z"/>
	<path d="M665.209,539.893l2.102-3.782h1.514l-2.957,5.323v5h-1.316v-5l-2.941-5.323h1.514L665.209,539.893z"/>
</g>
<g>
	<path fill="#808080" d="M626.893,523.744h-1.33v-3.054c0-0.91-0.435-1.358-1.317-1.358h-0.826v4.412h-1.317v-10.323h2.144
		c1.779,0,2.62,1.022,2.62,2.941c0,0.953-0.211,1.681-0.617,2.171c-0.014,0.014-0.042,0.042-0.056,0.07
		c-0.028,0.028-0.056,0.056-0.084,0.07c0.504,0.49,0.784,1.163,0.784,2.017V523.744z M623.419,518.001h0.826
		c0.351,0,0.603-0.042,0.743-0.126c0.125-0.084,0.209-0.154,0.252-0.196c0.209-0.266,0.308-0.701,0.308-1.317
		c0-0.687-0.112-1.093-0.322-1.331c-0.224-0.224-0.546-0.28-0.98-0.28h-0.826V518.001z"/>
	<path fill="#808080" d="M629.257,523.758h-1.317v-1.485h1.317V523.758z"/>
	<path fill="#808080" d="M637.602,523.744l-1.429-4.944v4.944h-1.317v-10.323h1.163l2.087,7.27l2.073-7.27h1.163v10.323h-1.316
		V518.8l-1.43,4.944H637.602z"/>
	<path fill="#808080" d="M646.66,513.435v1.317h-2.955v3.18h2.955v1.317h-2.955v3.193h2.955v1.317h-4.272v-10.324H646.66z"/>
	<path fill="#808080" d="M647.596,523.758v-10.324h2.059c1.779,0,2.62,1.093,2.62,2.984v4.342c0,1.891-0.841,2.998-2.62,2.998
		H647.596z M648.912,514.751v7.69h0.742c0.337,0,0.658-0.042,0.896-0.266c0.225-0.224,0.393-0.644,0.393-1.415v-4.342
		c0-0.771-0.168-1.191-0.393-1.415c-0.238-0.224-0.56-0.252-0.896-0.252H648.912z"/>
	<path fill="#808080" d="M654.82,523.758h-1.316v-10.324h1.316V523.758z"/>
	<path fill="#808080" d="M655.912,513.421h1.316v7.578c0,0.714,0.154,1.079,0.364,1.247c0.21,0.182,0.448,0.182,0.63,0.182
		s0.42,0,0.631-0.182c0.21-0.168,0.363-0.532,0.363-1.247v-7.578h1.317v7.578c0,0.854-0.183,1.513-0.561,1.975
		c-0.28,0.378-0.812,0.77-1.751,0.77s-1.471-0.392-1.751-0.77c-0.378-0.462-0.56-1.121-0.56-1.975V513.421z"/>
	<path fill="#808080" d="M664.327,523.744l-1.429-4.944v4.944h-1.316v-10.323h1.162l2.087,7.27l2.073-7.27h1.163v10.323h-1.317
		V518.8l-1.428,4.944H664.327z"/>
</g>
<rect x="559.843" y="566.93" fill="#E6E6E6" width="14.173" height="14.173"/>
<rect x="602.363" y="566.929" fill="#808080" width="14.172" height="14.174"/>
<rect x="644.882" y="566.929" width="14.174" height="14.174"/>
</svg>
